<?xml version="1.0" encoding="UTF-8" standalone="no"?>
<!-- Generator: Adobe Illustrator 13.0.0, SVG Export Plug-In . SVG Version: 6.00 Build 14576)  -->

<svg
   xmlns:dc="http://purl.org/dc/elements/1.1/"
   xmlns:cc="http://creativecommons.org/ns#"
   xmlns:rdf="http://www.w3.org/1999/02/22-rdf-syntax-ns#"
   xmlns:svg="http://www.w3.org/2000/svg"
   xmlns="http://www.w3.org/2000/svg"
   xmlns:sodipodi="http://sodipodi.sourceforge.net/DTD/sodipodi-0.dtd"
   xmlns:inkscape="http://www.inkscape.org/namespaces/inkscape"
   version="1.1"
   x="0px"
   y="0px"
   height="100%"
   width="100%"
   style="max-height: 720px;"
   viewBox="0 0 550 720"
   enable-background="new 0 0 800 600"
   xml:space="preserve"
   id="svg2"
   inkscape:version="0.91 r13725"
   sodipodi:docname="distribution.svg"><metadata
   id="metadata972"><rdf:RDF><cc:Work
       rdf:about=""><dc:format>image/svg+xml</dc:format><dc:type
         rdf:resource="http://purl.org/dc/dcmitype/StillImage" /><dc:title></dc:title></cc:Work></rdf:RDF></metadata><defs
   id="defs970">
	
	
	
	
	
	
	
	
	
	
	
	
	
	
	
	
	
	
	
	
	
	
	
	
	
	
	
	
	
	
	
	
	
	
	
	
	
	
	
	
	
	
	
	
	
	
	
	
	
	
	
	
	
	
	
	
	
	
	
	
	
	
	
	
	
	
	
	
	

	
	
	
	

		
		
		
		
		
		
		
		
	
			
			
			
			
			
			
			
			
			
		
				
			
					
					
					
				</defs><sodipodi:namedview
   pagecolor="#ffffff"
   bordercolor="#666666"
   borderopacity="1"
   objecttolerance="10"
   gridtolerance="10"
   guidetolerance="10"
   inkscape:pageopacity="0"
   inkscape:pageshadow="2"
   inkscape:window-width="1600"
   inkscape:window-height="1137"
   id="namedview968"
   showgrid="false"
   inkscape:zoom="1"
   inkscape:cx="190.48233"
   inkscape:cy="268.50924"
   inkscape:window-x="-8"
   inkscape:window-y="-8"
   inkscape:window-maximized="1"
   inkscape:current-layer="svg2"
   fit-margin-top="0"
   fit-margin-left="0"
   fit-margin-right="0"
   fit-margin-bottom="0"
   showguides="true"
   inkscape:guide-bbox="true"><sodipodi:guide
     position="207.52285,62.025446"
     orientation="1,0"
     id="guide5598" /><sodipodi:guide
     position="274.11637,17.071215"
     orientation="1,0"
     id="guide5600" /><sodipodi:guide
     position="140.67384,61.968323"
     orientation="1,0"
     id="guide5602" /><sodipodi:guide
     position="74.025356,34.256595"
     orientation="1,0"
     id="guide5604" /><sodipodi:guide
     position="340.79015,109.16414"
     orientation="1,0"
     id="guide5606" /><sodipodi:guide
     position="407.50068,106.20235"
     orientation="1,0"
     id="guide5608" /><sodipodi:guide
     position="474.17706,34.629925"
     orientation="1,0"
     id="guide5610" /><sodipodi:guide
     position="275.44299,16.803835"
     orientation="0,1"
     id="guide5612" /><sodipodi:guide
     position="321.99999,292"
     orientation="0,1"
     id="guide5614" /></sodipodi:namedview>
<path
   style="fill:none;stroke:#000000;stroke-width:0.92637354"
   inkscape:connector-curvature="0"
   id="path11"
   d="m 540.89375,694.86564 c -25.91993,0 -47.81014,-6.44756 -66.6711,-17.34171 -27.45864,-15.84191 -48.50492,-41.10319 -66.21718,-69.58918 -25.93846,-41.69607 -44.75311,-90.30289 -66.13381,-126.46851 -18.55526,-31.38553 -39.03738,-53.39617 -67.77348,-53.39617 -28.81022,0 -49.32013,22.1218 -67.91245,53.62777 -21.34364,36.17488 -40.14903,84.71685 -66.05969,126.34808 -17.86048,28.69812 -39.10223,54.10947 -66.884184,69.89488 -18.69421,10.64403 -40.35283,16.92484 -65.9392704,16.92484" /><polyline
   style="fill:none;stroke:#000000;stroke-width:1.5"
   id="polyline17"
   points="432,412.5 432,403.5 432,106.5 432,88.5    "
   transform="matrix(0.92637352,0,0,2.1296296,-126.09518,-175.25616)" /><g
   id="g19"
   transform="matrix(0.92637352,0,0,0.92637352,-126.09518,329.41129)">
				<g
   id="g21">
					<polyline
   style="fill:none;stroke:#000000;stroke-width:1.5"
   id="polyline23"
   points="720,403.5 648,403.5 576,403.5 504,403.5 432,403.5        360.17,403.5 288,403.5 216.16,403.5 144,403.5      " />
					<path
   inkscape:connector-curvature="0"
   id="path25"
   d="m 141.343,404.653 c 1.86,0.562 3.069,1.079 4.561,1.678 l 0,-5.675 c -0.534,0.254 -2.701,1.116 -4.561,1.678 -1.991,0.602 -3.795,1.014 -4.966,1.16 1.17,0.147 2.975,0.558 4.966,1.159 z" />
					<path
   inkscape:connector-curvature="0"
   id="path27"
   d="m 722.657,402.347 c -1.86,-0.562 -3.069,-1.079 -4.562,-1.678 l 0,5.675 c 0.534,-0.254 2.701,-1.117 4.562,-1.678 1.99,-0.602 3.796,-1.014 4.966,-1.16 -1.17,-0.147 -2.976,-0.558 -4.966,-1.159 z" />
				</g>
			</g><line
   style="fill:none;stroke:#606060;stroke-width:0.92637354;stroke-dasharray:4.63186759"
   id="line29"
   y2="482.10544"
   x2="340.79706"
   y1="703.203"
   x1="340.79706" /><line
   style="fill:none;stroke:#606060;stroke-width:0.92637354;stroke-dasharray:4.63186759"
   id="line31"
   y2="482.42041"
   x2="207.39928"
   y1="703.203"
   x1="207.55678" /><line
   style="fill:none;stroke:#606060;stroke-width:0.92637354;stroke-dasharray:4.63186759"
   id="line33"
   y2="608.24969"
   x2="407.49597"
   y1="703.203"
   x1="407.49597" /><line
   style="fill:none;stroke:#606060;stroke-width:0.92637354;stroke-dasharray:4.63186759"
   id="line35"
   y2="608.40723"
   x2="140.70038"
   y1="703.203"
   x1="140.70038" /><line
   style="fill:none;stroke:#606060;stroke-width:0.92637354;stroke-dasharray:4.63186759"
   id="line37"
   y2="677.57025"
   x2="474.19485"
   y1="703.203"
   x1="474.19485" /><polyline
   style="fill:none;stroke:#606060;stroke-dasharray:5"
   id="polyline39"
   points="216.17,404.33 216.16,403.5 216,377.67    "
   transform="matrix(0.92637352,0,0,0.92637352,-126.09518,329.41129)" />
<g
   id="g188"
   transform="matrix(0.92637352,0,0,0.92637352,-126.09518,329.41129)">
		<path
   style="fill:#606060"
   inkscape:connector-curvature="0"
   id="path190"
   d="m 383.797,377.752 c -0.32,0.399 -0.899,0.779 -1.519,0.779 -0.58,0 -0.959,-0.229 -1.279,-0.369 -0.3,-0.12 -0.64,-0.34 -1.14,-0.34 -0.459,0 -0.909,0.31 -1.179,0.59 l -0.35,-0.42 c 0.32,-0.38 0.899,-0.77 1.529,-0.77 0.59,0 0.95,0.229 1.279,0.359 0.3,0.13 0.63,0.34 1.129,0.34 0.46,0 0.91,-0.319 1.16,-0.58 l 0.37,0.411 z m 0.04,1.969 c -0.32,0.41 -0.91,0.79 -1.529,0.79 -0.569,0 -0.939,-0.23 -1.269,-0.36 -0.3,-0.119 -0.64,-0.34 -1.149,-0.34 -0.44,0 -0.899,0.3 -1.169,0.59 l -0.34,-0.43 c 0.31,-0.38 0.899,-0.76 1.519,-0.76 0.59,0 0.95,0.22 1.279,0.36 0.3,0.12 0.64,0.34 1.129,0.34 0.47,0 0.919,-0.3 1.169,-0.59 l 0.36,0.4 z" />
		<path
   style="fill:#606060"
   inkscape:connector-curvature="0"
   id="path192"
   d="m 390.948,378.182 c 0,2.209 -0.82,3.429 -2.259,3.429 -1.27,0 -2.129,-1.189 -2.149,-3.339 0,-2.179 0.939,-3.378 2.259,-3.378 1.369,0 2.149,1.219 2.149,3.288 z m -3.528,0.1 c 0,1.688 0.52,2.648 1.319,2.648 0.899,0 1.329,-1.05 1.329,-2.709 0,-1.599 -0.41,-2.648 -1.319,-2.648 -0.77,0 -1.329,0.94 -1.329,2.709 z" />
		<path
   style="fill:#606060"
   inkscape:connector-curvature="0"
   id="path194"
   d="m 392.41,381.61 c -0.34,0 -0.58,-0.271 -0.58,-0.63 0,-0.37 0.25,-0.63 0.6,-0.63 0.35,0 0.589,0.26 0.589,0.63 0,0.359 -0.23,0.63 -0.6,0.63 l -0.009,0 z" />
		<path
   style="fill:#606060"
   inkscape:connector-curvature="0"
   id="path196"
   d="m 394.04,380.49 c 0.25,0.16 0.83,0.41 1.439,0.41 1.129,0 1.479,-0.72 1.469,-1.26 -0.01,-0.909 -0.83,-1.299 -1.679,-1.299 l -0.49,0 0,-0.66 0.49,0 c 0.64,0 1.449,-0.329 1.449,-1.099 0,-0.521 -0.33,-0.979 -1.14,-0.979 -0.52,0 -1.02,0.229 -1.299,0.43 l -0.23,-0.64 c 0.34,-0.25 1,-0.5 1.699,-0.5 1.279,0 1.859,0.76 1.859,1.549 0,0.67 -0.399,1.239 -1.199,1.529 l 0,0.021 c 0.8,0.159 1.449,0.76 1.449,1.669 0,1.039 -0.81,1.949 -2.369,1.949 -0.729,0 -1.369,-0.23 -1.689,-0.44 l 0.241,-0.68 z" />
		<path
   style="fill:#606060"
   inkscape:connector-curvature="0"
   id="path198"
   d="m 401.678,381.5 0,-1.769 -3.018,0 0,-0.58 2.898,-4.147 0.95,0 0,4.037 0.909,0 0,0.69 -0.909,0 0,1.769 -0.83,0 z m 0,-2.459 0,-2.169 c 0,-0.339 0.011,-0.679 0.03,-1.019 l -0.03,0 c -0.199,0.379 -0.359,0.659 -0.539,0.959 l -1.589,2.209 0,0.02 2.128,0 z" />
		<path
   style="fill:#606060"
   inkscape:connector-curvature="0"
   id="path200"
   d="m 405.998,375.823 -0.02,0 -1.13,0.609 -0.17,-0.67 1.42,-0.759 0.749,0 0,6.496 -0.85,0 0,-5.676 z" />
		<path
   style="fill:#606060"
   inkscape:connector-curvature="0"
   id="path202"
   d="m 409.429,380.49 c 0.25,0.16 0.83,0.41 1.439,0.41 1.13,0 1.479,-0.72 1.47,-1.26 -0.011,-0.909 -0.83,-1.299 -1.68,-1.299 l -0.489,0 0,-0.66 0.489,0 c 0.64,0 1.449,-0.329 1.449,-1.099 0,-0.521 -0.329,-0.979 -1.139,-0.979 -0.521,0 -1.02,0.229 -1.3,0.43 l -0.229,-0.64 c 0.34,-0.25 0.999,-0.5 1.699,-0.5 1.279,0 1.858,0.76 1.858,1.549 0,0.67 -0.399,1.239 -1.199,1.529 l 0,0.021 c 0.8,0.159 1.449,0.76 1.449,1.669 0,1.039 -0.81,1.949 -2.369,1.949 -0.729,0 -1.369,-0.23 -1.688,-0.44 l 0.24,-0.68 z" />
	</g><g
   id="g204"
   transform="matrix(0.92637352,0,0,0.92637352,-126.09518,329.41129)">
		<path
   style="fill:#606060"
   inkscape:connector-curvature="0"
   id="path206"
   d="m 311.797,377.752 c -0.32,0.399 -0.899,0.779 -1.519,0.779 -0.58,0 -0.959,-0.229 -1.279,-0.369 -0.3,-0.12 -0.64,-0.34 -1.14,-0.34 -0.459,0 -0.909,0.31 -1.179,0.59 l -0.35,-0.42 c 0.32,-0.38 0.899,-0.77 1.529,-0.77 0.59,0 0.95,0.229 1.279,0.359 0.3,0.13 0.63,0.34 1.129,0.34 0.46,0 0.91,-0.319 1.16,-0.58 l 0.37,0.411 z m 0.04,1.969 c -0.32,0.41 -0.91,0.79 -1.529,0.79 -0.569,0 -0.939,-0.23 -1.269,-0.36 -0.3,-0.119 -0.64,-0.34 -1.149,-0.34 -0.44,0 -0.899,0.3 -1.169,0.59 l -0.34,-0.43 c 0.31,-0.38 0.899,-0.76 1.519,-0.76 0.59,0 0.95,0.22 1.279,0.36 0.3,0.12 0.64,0.34 1.129,0.34 0.47,0 0.919,-0.3 1.169,-0.59 l 0.36,0.4 z" />
		<path
   style="fill:#606060"
   inkscape:connector-curvature="0"
   id="path208"
   d="m 318.948,378.182 c 0,2.209 -0.82,3.429 -2.259,3.429 -1.27,0 -2.129,-1.189 -2.149,-3.339 0,-2.179 0.939,-3.378 2.259,-3.378 1.369,0 2.149,1.219 2.149,3.288 z m -3.528,0.1 c 0,1.688 0.52,2.648 1.319,2.648 0.899,0 1.329,-1.05 1.329,-2.709 0,-1.599 -0.41,-2.648 -1.319,-2.648 -0.77,0 -1.329,0.94 -1.329,2.709 z" />
		<path
   style="fill:#606060"
   inkscape:connector-curvature="0"
   id="path210"
   d="m 320.41,381.61 c -0.34,0 -0.58,-0.271 -0.58,-0.63 0,-0.37 0.25,-0.63 0.6,-0.63 0.35,0 0.589,0.26 0.589,0.63 0,0.359 -0.23,0.63 -0.6,0.63 l -0.009,0 z" />
		<path
   style="fill:#606060"
   inkscape:connector-curvature="0"
   id="path212"
   d="m 323.739,375.823 -0.02,0 -1.129,0.609 -0.17,-0.67 1.419,-0.759 0.75,0 0,6.496 -0.849,0 0,-5.676 z" />
		<path
   style="fill:#606060"
   inkscape:connector-curvature="0"
   id="path214"
   d="m 327.169,380.49 c 0.25,0.16 0.83,0.41 1.439,0.41 1.13,0 1.479,-0.72 1.47,-1.26 -0.011,-0.909 -0.83,-1.299 -1.679,-1.299 l -0.49,0 0,-0.66 0.49,0 c 0.639,0 1.449,-0.329 1.449,-1.099 0,-0.521 -0.329,-0.979 -1.139,-0.979 -0.52,0 -1.02,0.229 -1.3,0.43 l -0.23,-0.64 c 0.34,-0.25 1,-0.5 1.7,-0.5 1.279,0 1.858,0.76 1.858,1.549 0,0.67 -0.399,1.239 -1.199,1.529 l 0,0.021 c 0.8,0.159 1.449,0.76 1.449,1.669 0,1.039 -0.81,1.949 -2.369,1.949 -0.729,0 -1.369,-0.23 -1.688,-0.44 l 0.239,-0.68 z" />
		<path
   style="fill:#606060"
   inkscape:connector-curvature="0"
   id="path216"
   d="m 335.967,375.743 -2.479,0 -0.25,1.669 c 0.15,-0.02 0.29,-0.04 0.53,-0.04 0.5,0 0.999,0.11 1.399,0.35 0.51,0.29 0.93,0.85 0.93,1.67 0,1.269 -1.01,2.219 -2.419,2.219 -0.71,0 -1.31,-0.2 -1.619,-0.4 l 0.22,-0.669 c 0.27,0.159 0.8,0.359 1.39,0.359 0.829,0 1.539,-0.54 1.539,-1.409 -0.011,-0.84 -0.57,-1.439 -1.869,-1.439 -0.37,0 -0.66,0.04 -0.899,0.07 l 0.42,-3.118 3.107,0 0,0.738 z" />
		<path
   style="fill:#606060"
   inkscape:connector-curvature="0"
   id="path218"
   d="m 337.729,380.88 c 0.19,0.021 0.41,0 0.71,-0.029 0.51,-0.07 0.989,-0.28 1.359,-0.63 0.43,-0.39 0.739,-0.959 0.859,-1.729 l -0.03,0 c -0.359,0.44 -0.879,0.7 -1.528,0.7 -1.17,0 -1.919,-0.88 -1.919,-1.989 0,-1.229 0.889,-2.309 2.219,-2.309 1.329,0 2.148,1.079 2.148,2.738 0,1.43 -0.479,2.429 -1.119,3.049 -0.5,0.489 -1.189,0.789 -1.89,0.869 -0.319,0.05 -0.6,0.061 -0.81,0.05 l 0,-0.72 z m 1.589,-5.317 c -0.74,0 -1.27,0.659 -1.27,1.579 0,0.81 0.489,1.379 1.249,1.379 0.59,0 1.05,-0.29 1.279,-0.68 0.05,-0.08 0.08,-0.18 0.08,-0.319 0,-1.109 -0.409,-1.959 -1.329,-1.959 l -0.009,0 z" />
	</g><g
   id="g220"
   transform="matrix(0.92637352,0,0,0.92637352,-126.09518,329.41129)">
		<path
   style="fill:#606060"
   inkscape:connector-curvature="0"
   id="path222"
   d="m 527.797,377.752 c -0.319,0.399 -0.898,0.779 -1.519,0.779 -0.579,0 -0.96,-0.229 -1.279,-0.369 -0.3,-0.12 -0.64,-0.34 -1.14,-0.34 -0.459,0 -0.909,0.31 -1.18,0.59 l -0.35,-0.42 c 0.32,-0.38 0.9,-0.77 1.529,-0.77 0.59,0 0.949,0.229 1.279,0.359 0.301,0.13 0.63,0.34 1.129,0.34 0.461,0 0.91,-0.319 1.16,-0.58 l 0.371,0.411 z m 0.041,1.969 c -0.32,0.41 -0.91,0.79 -1.529,0.79 -0.57,0 -0.939,-0.23 -1.27,-0.36 -0.3,-0.119 -0.64,-0.34 -1.149,-0.34 -0.44,0 -0.899,0.3 -1.169,0.59 l -0.34,-0.43 c 0.31,-0.38 0.898,-0.76 1.519,-0.76 0.59,0 0.95,0.22 1.279,0.36 0.3,0.12 0.64,0.34 1.13,0.34 0.469,0 0.919,-0.3 1.169,-0.59 l 0.36,0.4 z" />
		<path
   style="fill:#606060"
   inkscape:connector-curvature="0"
   id="path224"
   d="m 534.948,378.182 c 0,2.209 -0.819,3.429 -2.259,3.429 -1.27,0 -2.129,-1.189 -2.148,-3.339 0,-2.179 0.939,-3.378 2.258,-3.378 1.369,0 2.149,1.219 2.149,3.288 z m -3.528,0.1 c 0,1.688 0.52,2.648 1.319,2.648 0.899,0 1.329,-1.05 1.329,-2.709 0,-1.599 -0.41,-2.648 -1.319,-2.648 -0.77,0 -1.329,0.94 -1.329,2.709 z" />
		<path
   style="fill:#606060"
   inkscape:connector-curvature="0"
   id="path226"
   d="m 536.41,381.61 c -0.34,0 -0.58,-0.271 -0.58,-0.63 0,-0.37 0.25,-0.63 0.6,-0.63 0.35,0 0.59,0.26 0.59,0.63 0,0.359 -0.23,0.63 -0.6,0.63 l -0.01,0 z" />
		<path
   style="fill:#606060"
   inkscape:connector-curvature="0"
   id="path228"
   d="m 539.738,375.823 -0.02,0 -1.129,0.609 -0.17,-0.67 1.418,-0.759 0.75,0 0,6.496 -0.85,0 0,-5.676 z" />
		<path
   style="fill:#606060"
   inkscape:connector-curvature="0"
   id="path230"
   d="m 543.17,380.49 c 0.25,0.16 0.829,0.41 1.438,0.41 1.13,0 1.479,-0.72 1.47,-1.26 -0.011,-0.909 -0.83,-1.299 -1.68,-1.299 l -0.489,0 0,-0.66 0.489,0 c 0.64,0 1.449,-0.329 1.449,-1.099 0,-0.521 -0.329,-0.979 -1.139,-0.979 -0.52,0 -1.02,0.229 -1.3,0.43 l -0.229,-0.64 c 0.34,-0.25 0.999,-0.5 1.699,-0.5 1.279,0 1.858,0.76 1.858,1.549 0,0.67 -0.399,1.239 -1.199,1.529 l 0,0.021 c 0.8,0.159 1.449,0.76 1.449,1.669 0,1.039 -0.81,1.949 -2.369,1.949 -0.729,0 -1.368,-0.23 -1.688,-0.44 l 0.241,-0.68 z" />
		<path
   style="fill:#606060"
   inkscape:connector-curvature="0"
   id="path232"
   d="m 551.967,375.743 -2.479,0 -0.25,1.669 c 0.15,-0.02 0.29,-0.04 0.53,-0.04 0.5,0 0.999,0.11 1.399,0.35 0.51,0.29 0.93,0.85 0.93,1.67 0,1.269 -1.01,2.219 -2.419,2.219 -0.71,0 -1.31,-0.2 -1.619,-0.4 l 0.22,-0.669 c 0.27,0.159 0.8,0.359 1.39,0.359 0.829,0 1.539,-0.54 1.539,-1.409 -0.011,-0.84 -0.57,-1.439 -1.869,-1.439 -0.37,0 -0.66,0.04 -0.899,0.07 l 0.42,-3.118 3.107,0 0,0.738 z" />
		<path
   style="fill:#606060"
   inkscape:connector-curvature="0"
   id="path234"
   d="m 553.729,380.88 c 0.19,0.021 0.41,0 0.71,-0.029 0.51,-0.07 0.989,-0.28 1.359,-0.63 0.43,-0.39 0.739,-0.959 0.859,-1.729 l -0.03,0 c -0.359,0.44 -0.879,0.7 -1.528,0.7 -1.17,0 -1.919,-0.88 -1.919,-1.989 0,-1.229 0.889,-2.309 2.219,-2.309 1.329,0 2.148,1.079 2.148,2.738 0,1.43 -0.479,2.429 -1.119,3.049 -0.5,0.489 -1.189,0.789 -1.89,0.869 -0.319,0.05 -0.6,0.061 -0.81,0.05 l 0,-0.72 z m 1.589,-5.317 c -0.74,0 -1.27,0.659 -1.27,1.579 0,0.81 0.489,1.379 1.249,1.379 0.59,0 1.05,-0.29 1.279,-0.68 0.05,-0.08 0.08,-0.18 0.08,-0.319 0,-1.109 -0.409,-1.959 -1.329,-1.959 l -0.009,0 z" />
	</g><g
   id="g236"
   transform="matrix(0.92637352,0,0,0.92637352,-126.09518,329.41129)">
		<path
   style="fill:#606060"
   inkscape:connector-curvature="0"
   id="path238"
   d="m 239.797,377.752 c -0.32,0.399 -0.899,0.779 -1.519,0.779 -0.58,0 -0.959,-0.229 -1.279,-0.369 -0.3,-0.12 -0.64,-0.34 -1.14,-0.34 -0.459,0 -0.909,0.31 -1.179,0.59 l -0.35,-0.42 c 0.32,-0.38 0.899,-0.77 1.529,-0.77 0.59,0 0.95,0.229 1.279,0.359 0.3,0.13 0.63,0.34 1.129,0.34 0.46,0 0.91,-0.319 1.16,-0.58 l 0.37,0.411 z m 0.04,1.969 c -0.32,0.41 -0.91,0.79 -1.529,0.79 -0.569,0 -0.939,-0.23 -1.269,-0.36 -0.3,-0.119 -0.64,-0.34 -1.149,-0.34 -0.44,0 -0.899,0.3 -1.169,0.59 l -0.34,-0.43 c 0.31,-0.38 0.899,-0.76 1.519,-0.76 0.59,0 0.95,0.22 1.279,0.36 0.3,0.12 0.64,0.34 1.129,0.34 0.47,0 0.919,-0.3 1.169,-0.59 l 0.36,0.4 z" />
		<path
   style="fill:#606060"
   inkscape:connector-curvature="0"
   id="path240"
   d="m 246.948,378.182 c 0,2.209 -0.82,3.429 -2.259,3.429 -1.27,0 -2.129,-1.189 -2.149,-3.339 0,-2.179 0.939,-3.378 2.259,-3.378 1.369,0 2.149,1.219 2.149,3.288 z m -3.528,0.1 c 0,1.688 0.52,2.648 1.319,2.648 0.899,0 1.329,-1.05 1.329,-2.709 0,-1.599 -0.41,-2.648 -1.319,-2.648 -0.77,0 -1.329,0.94 -1.329,2.709 z" />
		<path
   style="fill:#606060"
   inkscape:connector-curvature="0"
   id="path242"
   d="m 248.41,381.61 c -0.34,0 -0.58,-0.271 -0.58,-0.63 0,-0.37 0.25,-0.63 0.6,-0.63 0.35,0 0.589,0.26 0.589,0.63 0,0.359 -0.23,0.63 -0.6,0.63 l -0.009,0 z" />
		<path
   style="fill:#606060"
   inkscape:connector-curvature="0"
   id="path244"
   d="m 254.147,378.182 c 0,2.209 -0.82,3.429 -2.259,3.429 -1.27,0 -2.129,-1.189 -2.149,-3.339 0,-2.179 0.939,-3.378 2.259,-3.378 1.37,0 2.149,1.219 2.149,3.288 z m -3.528,0.1 c 0,1.688 0.52,2.648 1.319,2.648 0.899,0 1.329,-1.05 1.329,-2.709 0,-1.599 -0.41,-2.648 -1.319,-2.648 -0.769,0 -1.329,0.94 -1.329,2.709 z" />
		<path
   style="fill:#606060"
   inkscape:connector-curvature="0"
   id="path246"
   d="m 254.959,381.5 0,-0.54 0.689,-0.669 c 1.66,-1.579 2.409,-2.419 2.418,-3.398 0,-0.66 -0.319,-1.27 -1.289,-1.27 -0.589,0 -1.079,0.3 -1.379,0.55 l -0.28,-0.619 c 0.45,-0.38 1.089,-0.66 1.838,-0.66 1.399,0 1.989,0.96 1.989,1.889 0,1.2 -0.869,2.169 -2.238,3.488 l -0.52,0.479 0,0.021 2.918,0 0,0.729 -4.146,0 z" />
		<path
   style="fill:#606060"
   inkscape:connector-curvature="0"
   id="path248"
   d="m 261.998,375.823 -0.02,0 -1.13,0.609 -0.17,-0.67 1.42,-0.759 0.749,0 0,6.496 -0.85,0 0,-5.676 z" />
		<path
   style="fill:#606060"
   inkscape:connector-curvature="0"
   id="path250"
   d="m 267.938,381.5 0,-1.769 -3.018,0 0,-0.58 2.897,-4.147 0.95,0 0,4.037 0.909,0 0,0.69 -0.909,0 0,1.769 -0.829,0 z m 0,-2.459 0,-2.169 c 0,-0.339 0.011,-0.679 0.03,-1.019 l -0.03,0 c -0.199,0.379 -0.359,0.659 -0.539,0.959 l -1.59,2.209 0,0.02 2.129,0 z" />
	</g><g
   id="g252"
   transform="matrix(0.92637352,0,0,0.92637352,-126.09518,329.41129)">
		<path
   style="fill:#606060"
   inkscape:connector-curvature="0"
   id="path254"
   d="m 599.797,377.752 c -0.319,0.399 -0.898,0.779 -1.519,0.779 -0.579,0 -0.96,-0.229 -1.279,-0.369 -0.3,-0.12 -0.64,-0.34 -1.14,-0.34 -0.459,0 -0.909,0.31 -1.18,0.59 l -0.35,-0.42 c 0.32,-0.38 0.9,-0.77 1.529,-0.77 0.59,0 0.949,0.229 1.279,0.359 0.301,0.13 0.63,0.34 1.129,0.34 0.461,0 0.91,-0.319 1.16,-0.58 l 0.371,0.411 z m 0.041,1.969 c -0.32,0.41 -0.91,0.79 -1.529,0.79 -0.57,0 -0.939,-0.23 -1.27,-0.36 -0.3,-0.119 -0.64,-0.34 -1.149,-0.34 -0.44,0 -0.899,0.3 -1.169,0.59 l -0.34,-0.43 c 0.31,-0.38 0.898,-0.76 1.519,-0.76 0.59,0 0.95,0.22 1.279,0.36 0.3,0.12 0.64,0.34 1.13,0.34 0.469,0 0.919,-0.3 1.169,-0.59 l 0.36,0.4 z" />
		<path
   style="fill:#606060"
   inkscape:connector-curvature="0"
   id="path256"
   d="m 606.948,378.182 c 0,2.209 -0.819,3.429 -2.259,3.429 -1.27,0 -2.129,-1.189 -2.148,-3.339 0,-2.179 0.939,-3.378 2.258,-3.378 1.369,0 2.149,1.219 2.149,3.288 z m -3.528,0.1 c 0,1.688 0.52,2.648 1.319,2.648 0.899,0 1.329,-1.05 1.329,-2.709 0,-1.599 -0.41,-2.648 -1.319,-2.648 -0.77,0 -1.329,0.94 -1.329,2.709 z" />
		<path
   style="fill:#606060"
   inkscape:connector-curvature="0"
   id="path258"
   d="m 608.41,381.61 c -0.34,0 -0.58,-0.271 -0.58,-0.63 0,-0.37 0.25,-0.63 0.6,-0.63 0.35,0 0.59,0.26 0.59,0.63 0,0.359 -0.23,0.63 -0.6,0.63 l -0.01,0 z" />
		<path
   style="fill:#606060"
   inkscape:connector-curvature="0"
   id="path260"
   d="m 614.147,378.182 c 0,2.209 -0.819,3.429 -2.259,3.429 -1.27,0 -2.129,-1.189 -2.148,-3.339 0,-2.179 0.939,-3.378 2.258,-3.378 1.369,0 2.149,1.219 2.149,3.288 z m -3.528,0.1 c 0,1.688 0.52,2.648 1.319,2.648 0.899,0 1.329,-1.05 1.329,-2.709 0,-1.599 -0.41,-2.648 -1.319,-2.648 -0.769,0 -1.329,0.94 -1.329,2.709 z" />
		<path
   style="fill:#606060"
   inkscape:connector-curvature="0"
   id="path262"
   d="m 614.959,381.5 0,-0.54 0.689,-0.669 c 1.66,-1.579 2.409,-2.419 2.419,-3.398 0,-0.66 -0.319,-1.27 -1.289,-1.27 -0.589,0 -1.079,0.3 -1.379,0.55 l -0.28,-0.619 c 0.45,-0.38 1.09,-0.66 1.839,-0.66 1.399,0 1.989,0.96 1.989,1.889 0,1.2 -0.869,2.169 -2.238,3.488 l -0.52,0.479 0,0.021 2.918,0 0,0.729 -4.148,0 z" />
		<path
   style="fill:#606060"
   inkscape:connector-curvature="0"
   id="path264"
   d="m 621.998,375.823 -0.02,0 -1.13,0.609 -0.17,-0.67 1.42,-0.759 0.749,0 0,6.496 -0.85,0 0,-5.676 z" />
		<path
   style="fill:#606060"
   inkscape:connector-curvature="0"
   id="path266"
   d="m 627.938,381.5 0,-1.769 -3.018,0 0,-0.58 2.897,-4.147 0.95,0 0,4.037 0.909,0 0,0.69 -0.909,0 0,1.769 -0.829,0 z m 0,-2.459 0,-2.169 c 0,-0.339 0.011,-0.679 0.03,-1.019 l -0.03,0 c -0.199,0.379 -0.359,0.659 -0.539,0.959 l -1.59,2.209 0,0.02 2.129,0 z" />
	</g><g
   id="g268"
   transform="matrix(0.92637352,0,0,0.92637352,-126.09518,329.41129)">
		<g
   id="g270">
			<path
   style="fill:#606060"
   inkscape:connector-curvature="0"
   id="path272"
   d="m 167.797,377.752 c -0.32,0.399 -0.899,0.779 -1.519,0.779 -0.58,0 -0.959,-0.229 -1.279,-0.369 -0.3,-0.12 -0.64,-0.34 -1.14,-0.34 -0.459,0 -0.909,0.31 -1.179,0.59 l -0.35,-0.42 c 0.32,-0.38 0.899,-0.77 1.529,-0.77 0.59,0 0.95,0.229 1.279,0.359 0.3,0.13 0.63,0.34 1.129,0.34 0.46,0 0.91,-0.319 1.16,-0.58 l 0.37,0.411 z m 0.04,1.969 c -0.32,0.41 -0.91,0.79 -1.529,0.79 -0.569,0 -0.939,-0.23 -1.269,-0.36 -0.3,-0.119 -0.64,-0.34 -1.149,-0.34 -0.44,0 -0.899,0.3 -1.169,0.59 l -0.34,-0.43 c 0.31,-0.38 0.899,-0.76 1.519,-0.76 0.59,0 0.95,0.22 1.279,0.36 0.3,0.12 0.64,0.34 1.129,0.34 0.47,0 0.919,-0.3 1.169,-0.59 l 0.36,0.4 z" />
			<path
   style="fill:#606060"
   inkscape:connector-curvature="0"
   id="path274"
   d="m 174.948,378.182 c 0,2.209 -0.82,3.429 -2.259,3.429 -1.27,0 -2.129,-1.189 -2.149,-3.339 0,-2.179 0.939,-3.378 2.259,-3.378 1.369,0 2.149,1.219 2.149,3.288 z m -3.528,0.1 c 0,1.688 0.52,2.648 1.319,2.648 0.899,0 1.329,-1.05 1.329,-2.709 0,-1.599 -0.41,-2.648 -1.319,-2.648 -0.77,0 -1.329,0.94 -1.329,2.709 z" />
			<path
   style="fill:#606060"
   inkscape:connector-curvature="0"
   id="path276"
   d="m 176.41,381.61 c -0.34,0 -0.58,-0.271 -0.58,-0.63 0,-0.37 0.25,-0.63 0.6,-0.63 0.35,0 0.589,0.26 0.589,0.63 0,0.359 -0.23,0.63 -0.6,0.63 l -0.009,0 z" />
			<path
   style="fill:#606060"
   inkscape:connector-curvature="0"
   id="path278"
   d="m 182.147,378.182 c 0,2.209 -0.82,3.429 -2.259,3.429 -1.27,0 -2.129,-1.189 -2.149,-3.339 0,-2.179 0.939,-3.378 2.259,-3.378 1.37,0 2.149,1.219 2.149,3.288 z m -3.528,0.1 c 0,1.688 0.52,2.648 1.319,2.648 0.899,0 1.329,-1.05 1.329,-2.709 0,-1.599 -0.41,-2.648 -1.319,-2.648 -0.769,0 -1.329,0.94 -1.329,2.709 z" />
			<path
   style="fill:#606060"
   inkscape:connector-curvature="0"
   id="path280"
   d="m 187.277,378.182 c 0,2.209 -0.819,3.429 -2.259,3.429 -1.27,0 -2.129,-1.189 -2.149,-3.339 0,-2.179 0.939,-3.378 2.258,-3.378 1.371,0 2.15,1.219 2.15,3.288 z m -3.528,0.1 c 0,1.688 0.52,2.648 1.319,2.648 0.899,0 1.329,-1.05 1.329,-2.709 0,-1.599 -0.409,-2.648 -1.319,-2.648 -0.769,0 -1.329,0.94 -1.329,2.709 z" />
			<path
   style="fill:#606060"
   inkscape:connector-curvature="0"
   id="path282"
   d="m 189.998,375.823 -0.02,0 -1.13,0.609 -0.17,-0.67 1.42,-0.759 0.749,0 0,6.496 -0.85,0 0,-5.676 z" />
			<path
   style="fill:#606060"
   inkscape:connector-curvature="0"
   id="path284"
   d="m 193.429,380.49 c 0.25,0.16 0.83,0.41 1.439,0.41 1.13,0 1.479,-0.72 1.47,-1.26 -0.011,-0.909 -0.83,-1.299 -1.68,-1.299 l -0.489,0 0,-0.66 0.489,0 c 0.64,0 1.449,-0.329 1.449,-1.099 0,-0.521 -0.329,-0.979 -1.139,-0.979 -0.521,0 -1.02,0.229 -1.3,0.43 l -0.229,-0.64 c 0.34,-0.25 0.999,-0.5 1.699,-0.5 1.279,0 1.858,0.76 1.858,1.549 0,0.67 -0.399,1.239 -1.199,1.529 l 0,0.021 c 0.8,0.159 1.449,0.76 1.449,1.669 0,1.039 -0.81,1.949 -2.369,1.949 -0.729,0 -1.369,-0.23 -1.688,-0.44 l 0.24,-0.68 z" />
		</g>
	</g><g
   id="g286"
   transform="matrix(0.92637352,0,0,0.92637352,-126.09518,329.41129)">
		<path
   style="fill:#606060"
   inkscape:connector-curvature="0"
   id="path288"
   d="m 671.797,377.752 c -0.319,0.399 -0.898,0.779 -1.519,0.779 -0.579,0 -0.96,-0.229 -1.279,-0.369 -0.3,-0.12 -0.64,-0.34 -1.14,-0.34 -0.459,0 -0.909,0.31 -1.18,0.59 l -0.35,-0.42 c 0.32,-0.38 0.9,-0.77 1.529,-0.77 0.59,0 0.949,0.229 1.279,0.359 0.301,0.13 0.63,0.34 1.129,0.34 0.461,0 0.91,-0.319 1.16,-0.58 l 0.371,0.411 z m 0.041,1.969 c -0.32,0.41 -0.91,0.79 -1.529,0.79 -0.57,0 -0.939,-0.23 -1.27,-0.36 -0.3,-0.119 -0.64,-0.34 -1.149,-0.34 -0.44,0 -0.899,0.3 -1.169,0.59 l -0.34,-0.43 c 0.31,-0.38 0.898,-0.76 1.519,-0.76 0.59,0 0.95,0.22 1.279,0.36 0.3,0.12 0.64,0.34 1.13,0.34 0.469,0 0.919,-0.3 1.169,-0.59 l 0.36,0.4 z" />
		<path
   style="fill:#606060"
   inkscape:connector-curvature="0"
   id="path290"
   d="m 678.948,378.182 c 0,2.209 -0.819,3.429 -2.259,3.429 -1.27,0 -2.129,-1.189 -2.148,-3.339 0,-2.179 0.939,-3.378 2.258,-3.378 1.369,0 2.149,1.219 2.149,3.288 z m -3.528,0.1 c 0,1.688 0.52,2.648 1.319,2.648 0.899,0 1.329,-1.05 1.329,-2.709 0,-1.599 -0.41,-2.648 -1.319,-2.648 -0.77,0 -1.329,0.94 -1.329,2.709 z" />
		<path
   style="fill:#606060"
   inkscape:connector-curvature="0"
   id="path292"
   d="m 680.41,381.61 c -0.34,0 -0.58,-0.271 -0.58,-0.63 0,-0.37 0.25,-0.63 0.6,-0.63 0.35,0 0.59,0.26 0.59,0.63 0,0.359 -0.23,0.63 -0.6,0.63 l -0.01,0 z" />
		<path
   style="fill:#606060"
   inkscape:connector-curvature="0"
   id="path294"
   d="m 686.147,378.182 c 0,2.209 -0.819,3.429 -2.259,3.429 -1.27,0 -2.129,-1.189 -2.148,-3.339 0,-2.179 0.939,-3.378 2.258,-3.378 1.369,0 2.149,1.219 2.149,3.288 z m -3.528,0.1 c 0,1.688 0.52,2.648 1.319,2.648 0.899,0 1.329,-1.05 1.329,-2.709 0,-1.599 -0.41,-2.648 -1.319,-2.648 -0.769,0 -1.329,0.94 -1.329,2.709 z" />
		<path
   style="fill:#606060"
   inkscape:connector-curvature="0"
   id="path296"
   d="m 691.277,378.182 c 0,2.209 -0.819,3.429 -2.259,3.429 -1.27,0 -2.129,-1.189 -2.149,-3.339 0,-2.179 0.939,-3.378 2.259,-3.378 1.37,0 2.149,1.219 2.149,3.288 z m -3.528,0.1 c 0,1.688 0.52,2.648 1.319,2.648 0.899,0 1.329,-1.05 1.329,-2.709 0,-1.599 -0.409,-2.648 -1.319,-2.648 -0.769,0 -1.329,0.94 -1.329,2.709 z" />
		<path
   style="fill:#606060"
   inkscape:connector-curvature="0"
   id="path298"
   d="m 693.998,375.823 -0.02,0 -1.13,0.609 -0.17,-0.67 1.42,-0.759 0.749,0 0,6.496 -0.85,0 0,-5.676 z" />
		<path
   style="fill:#606060"
   inkscape:connector-curvature="0"
   id="path300"
   d="m 697.429,380.49 c 0.25,0.16 0.83,0.41 1.439,0.41 1.13,0 1.479,-0.72 1.47,-1.26 -0.011,-0.909 -0.83,-1.299 -1.68,-1.299 l -0.489,0 0,-0.66 0.489,0 c 0.64,0 1.449,-0.329 1.449,-1.099 0,-0.521 -0.329,-0.979 -1.139,-0.979 -0.521,0 -1.02,0.229 -1.3,0.43 l -0.229,-0.64 c 0.34,-0.25 0.999,-0.5 1.699,-0.5 1.279,0 1.858,0.76 1.858,1.549 0,0.67 -0.399,1.239 -1.199,1.529 l 0,0.021 c 0.8,0.159 1.449,0.76 1.449,1.669 0,1.039 -0.81,1.949 -2.369,1.949 -0.729,0 -1.369,-0.23 -1.688,-0.44 l 0.24,-0.68 z" />
	</g><g
   id="g302"
   transform="matrix(0.92637352,0,0,0.92637352,-126.09518,329.41129)">
		<path
   style="fill:#606060"
   inkscape:connector-curvature="0"
   id="path304"
   d="m 455.797,377.752 c -0.319,0.399 -0.898,0.779 -1.519,0.779 -0.579,0 -0.96,-0.229 -1.279,-0.369 -0.3,-0.12 -0.64,-0.34 -1.14,-0.34 -0.459,0 -0.909,0.31 -1.18,0.59 l -0.35,-0.42 c 0.32,-0.38 0.9,-0.77 1.529,-0.77 0.59,0 0.949,0.229 1.279,0.359 0.301,0.13 0.63,0.34 1.129,0.34 0.461,0 0.91,-0.319 1.16,-0.58 l 0.371,0.411 z m 0.041,1.969 c -0.32,0.41 -0.91,0.79 -1.529,0.79 -0.57,0 -0.939,-0.23 -1.27,-0.36 -0.3,-0.119 -0.64,-0.34 -1.149,-0.34 -0.44,0 -0.899,0.3 -1.169,0.59 l -0.34,-0.43 c 0.31,-0.38 0.898,-0.76 1.519,-0.76 0.59,0 0.95,0.22 1.279,0.36 0.3,0.12 0.64,0.34 1.13,0.34 0.469,0 0.919,-0.3 1.169,-0.59 l 0.36,0.4 z" />
		<path
   style="fill:#606060"
   inkscape:connector-curvature="0"
   id="path306"
   d="m 462.948,378.182 c 0,2.209 -0.819,3.429 -2.259,3.429 -1.27,0 -2.129,-1.189 -2.148,-3.339 0,-2.179 0.939,-3.378 2.258,-3.378 1.369,0 2.149,1.219 2.149,3.288 z m -3.528,0.1 c 0,1.688 0.52,2.648 1.319,2.648 0.899,0 1.329,-1.05 1.329,-2.709 0,-1.599 -0.41,-2.648 -1.319,-2.648 -0.77,0 -1.329,0.94 -1.329,2.709 z" />
		<path
   style="fill:#606060"
   inkscape:connector-curvature="0"
   id="path308"
   d="m 464.41,381.61 c -0.34,0 -0.58,-0.271 -0.58,-0.63 0,-0.37 0.25,-0.63 0.6,-0.63 0.35,0 0.59,0.26 0.59,0.63 0,0.359 -0.23,0.63 -0.6,0.63 l -0.01,0 z" />
		<path
   style="fill:#606060"
   inkscape:connector-curvature="0"
   id="path310"
   d="m 466.039,380.49 c 0.25,0.16 0.83,0.41 1.439,0.41 1.129,0 1.479,-0.72 1.469,-1.26 -0.01,-0.909 -0.829,-1.299 -1.678,-1.299 l -0.49,0 0,-0.66 0.49,0 c 0.639,0 1.449,-0.329 1.449,-1.099 0,-0.521 -0.33,-0.979 -1.141,-0.979 -0.52,0 -1.02,0.229 -1.299,0.43 l -0.23,-0.64 c 0.34,-0.25 1,-0.5 1.699,-0.5 1.279,0 1.859,0.76 1.859,1.549 0,0.67 -0.399,1.239 -1.199,1.529 l 0,0.021 c 0.8,0.159 1.449,0.76 1.449,1.669 0,1.039 -0.81,1.949 -2.369,1.949 -0.729,0 -1.369,-0.23 -1.688,-0.44 l 0.24,-0.68 z" />
		<path
   style="fill:#606060"
   inkscape:connector-curvature="0"
   id="path312"
   d="m 473.678,381.5 0,-1.769 -3.018,0 0,-0.58 2.897,-4.147 0.95,0 0,4.037 0.909,0 0,0.69 -0.909,0 0,1.769 -0.829,0 z m 0,-2.459 0,-2.169 c 0,-0.339 0.011,-0.679 0.03,-1.019 l -0.03,0 c -0.199,0.379 -0.359,0.659 -0.539,0.959 l -1.59,2.209 0,0.02 2.129,0 z" />
		<path
   style="fill:#606060"
   inkscape:connector-curvature="0"
   id="path314"
   d="m 477.998,375.823 -0.02,0 -1.13,0.609 -0.17,-0.67 1.42,-0.759 0.749,0 0,6.496 -0.85,0 0,-5.676 z" />
		<path
   style="fill:#606060"
   inkscape:connector-curvature="0"
   id="path316"
   d="m 481.429,380.49 c 0.25,0.16 0.83,0.41 1.439,0.41 1.13,0 1.479,-0.72 1.47,-1.26 -0.011,-0.909 -0.83,-1.299 -1.68,-1.299 l -0.489,0 0,-0.66 0.489,0 c 0.64,0 1.449,-0.329 1.449,-1.099 0,-0.521 -0.329,-0.979 -1.139,-0.979 -0.521,0 -1.02,0.229 -1.3,0.43 l -0.229,-0.64 c 0.34,-0.25 0.999,-0.5 1.699,-0.5 1.279,0 1.858,0.76 1.858,1.549 0,0.67 -0.399,1.239 -1.199,1.529 l 0,0.021 c 0.8,0.159 1.449,0.76 1.449,1.669 0,1.039 -0.81,1.949 -2.369,1.949 -0.729,0 -1.369,-0.23 -1.688,-0.44 l 0.24,-0.68 z" />
	</g><g
   id="g378"
   transform="matrix(0.92637352,0,0,0.92637352,-126.09518,329.41129)">
		<path
   inkscape:connector-curvature="0"
   id="path380"
   d="m 139.079,417.866 0,0.779 -2.962,0 0,-0.779 2.962,0 z" />
		<path
   inkscape:connector-curvature="0"
   id="path382"
   d="m 143.242,421.5 0,-2.123 -3.622,0 0,-0.695 3.479,-4.978 1.139,0 0,4.846 1.091,0 0,0.827 -1.091,0 0,2.123 -0.996,0 z m 0,-2.95 0,-2.603 c 0,-0.408 0.012,-0.815 0.036,-1.224 l -0.036,0 c -0.24,0.456 -0.432,0.792 -0.647,1.151 l -1.907,2.65 0,0.024 2.554,0 z" />
		<path
   inkscape:connector-curvature="0"
   id="path384"
   d="m 150.538,416.367 c 0.684,0.468 1.079,1.319 1.079,2.194 0,2.135 -1.463,3.07 -2.782,3.07 -1.571,0 -2.783,-1.14 -2.783,-2.975 0,-1.942 1.235,-3.094 2.986,-3.094 0.324,0 0.948,0 1.116,0 l 0.636,0 c 0.396,0 1.091,0.012 1.307,0 l -0.036,0.804 c -0.276,0 -0.671,-0.013 -1.523,-0.049 l 0,0.05 z m -1.667,4.474 c 0.947,0 1.703,-0.96 1.703,-2.279 0,-0.983 -0.503,-2.207 -1.703,-2.207 -1.211,0 -1.751,1.151 -1.751,2.255 0,1.271 0.732,2.231 1.739,2.231 l 0.012,0 z" />
	</g><g
   id="g386"
   transform="matrix(0.92637352,0,0,0.92637352,-126.09518,329.41129)">
		<path
   inkscape:connector-curvature="0"
   id="path388"
   d="m 211.079,417.866 0,0.779 -2.962,0 0,-0.779 2.962,0 z" />
		<path
   inkscape:connector-curvature="0"
   id="path390"
   d="m 212.232,420.289 c 0.3,0.191 0.996,0.491 1.727,0.491 1.355,0 1.775,-0.863 1.763,-1.511 -0.012,-1.092 -0.996,-1.56 -2.015,-1.56 l -0.587,0 0,-0.791 0.587,0 c 0.768,0 1.739,-0.396 1.739,-1.319 0,-0.624 -0.396,-1.176 -1.367,-1.176 -0.624,0 -1.224,0.276 -1.559,0.516 l -0.276,-0.768 c 0.408,-0.3 1.199,-0.6 2.039,-0.6 1.535,0 2.231,0.911 2.231,1.859 0,0.804 -0.48,1.487 -1.439,1.835 l 0,0.023 c 0.959,0.192 1.739,0.912 1.739,2.003 0,1.248 -0.972,2.339 -2.842,2.339 -0.875,0 -1.643,-0.275 -2.027,-0.527 l 0.287,-0.814 z" />
		<path
   inkscape:connector-curvature="0"
   id="path392"
   d="m 222.538,416.367 c 0.684,0.468 1.079,1.319 1.079,2.194 0,2.135 -1.463,3.07 -2.782,3.07 -1.571,0 -2.783,-1.14 -2.783,-2.975 0,-1.942 1.235,-3.094 2.986,-3.094 0.324,0 0.948,0 1.116,0 l 0.636,0 c 0.396,0 1.091,0.012 1.307,0 l -0.036,0.804 c -0.276,0 -0.671,-0.013 -1.523,-0.049 l 0,0.05 z m -1.667,4.474 c 0.947,0 1.703,-0.96 1.703,-2.279 0,-0.983 -0.503,-2.207 -1.703,-2.207 -1.211,0 -1.751,1.151 -1.751,2.255 0,1.271 0.732,2.231 1.739,2.231 l 0.012,0 z" />
	</g><g
   id="g394"
   transform="matrix(0.92637352,0,0,0.92637352,-126.09518,329.41129)">
		<path
   inkscape:connector-curvature="0"
   id="path396"
   d="m 283.079,417.866 0,0.779 -2.962,0 0,-0.779 2.962,0 z" />
		<path
   inkscape:connector-curvature="0"
   id="path398"
   d="m 283.98,421.5 0,-0.647 0.828,-0.804 c 1.991,-1.895 2.891,-2.902 2.902,-4.078 0,-0.791 -0.384,-1.522 -1.547,-1.522 -0.708,0 -1.295,0.359 -1.655,0.659 l -0.336,-0.743 c 0.54,-0.456 1.308,-0.792 2.207,-0.792 1.679,0 2.387,1.151 2.387,2.267 0,1.439 -1.043,2.603 -2.687,4.186 l -0.624,0.576 0,0.023 3.502,0 0,0.876 -4.977,0 z" />
		<path
   inkscape:connector-curvature="0"
   id="path400"
   d="m 294.538,416.367 c 0.684,0.468 1.079,1.319 1.079,2.194 0,2.135 -1.463,3.07 -2.782,3.07 -1.571,0 -2.783,-1.14 -2.783,-2.975 0,-1.942 1.235,-3.094 2.986,-3.094 0.324,0 0.948,0 1.116,0 l 0.636,0 c 0.396,0 1.091,0.012 1.307,0 l -0.036,0.804 c -0.276,0 -0.671,-0.013 -1.523,-0.049 l 0,0.05 z m -1.667,4.474 c 0.947,0 1.703,-0.96 1.703,-2.279 0,-0.983 -0.503,-2.207 -1.703,-2.207 -1.211,0 -1.751,1.151 -1.751,2.255 0,1.271 0.732,2.231 1.739,2.231 l 0.012,0 z" />
	</g><g
   id="g402"
   transform="matrix(0.92637352,0,0,0.92637352,-126.09518,329.41129)">
		<path
   inkscape:connector-curvature="0"
   id="path404"
   d="m 355.079,417.866 0,0.779 -2.962,0 0,-0.779 2.962,0 z" />
		<path
   inkscape:connector-curvature="0"
   id="path406"
   d="m 358.271,414.688 -0.024,0 -1.355,0.731 -0.204,-0.803 1.703,-0.912 0.9,0 0,7.796 -1.02,0 0,-6.812 z" />
		<path
   inkscape:connector-curvature="0"
   id="path408"
   d="m 366.538,416.367 c 0.684,0.468 1.079,1.319 1.079,2.194 0,2.135 -1.463,3.07 -2.782,3.07 -1.571,0 -2.783,-1.14 -2.783,-2.975 0,-1.942 1.235,-3.094 2.986,-3.094 0.324,0 0.948,0 1.116,0 l 0.636,0 c 0.396,0 1.091,0.012 1.307,0 l -0.036,0.804 c -0.276,0 -0.671,-0.013 -1.523,-0.049 l 0,0.05 z m -1.667,4.474 c 0.947,0 1.703,-0.96 1.703,-2.279 0,-0.983 -0.503,-2.207 -1.703,-2.207 -1.211,0 -1.751,1.151 -1.751,2.255 0,1.271 0.732,2.231 1.739,2.231 l 0.012,0 z" />
	</g><g
   id="g410"
   transform="matrix(0.92637352,0,0,0.92637352,-126.09518,329.41129)">
		<path
   inkscape:connector-curvature="0"
   id="path412"
   d="m 434.643,417.519 c 0,2.65 -0.983,4.113 -2.711,4.113 -1.522,0 -2.555,-1.427 -2.578,-4.006 0,-2.614 1.127,-4.054 2.711,-4.054 1.642,0 2.578,1.463 2.578,3.947 z m -4.234,0.119 c 0,2.027 0.624,3.179 1.583,3.179 1.08,0 1.596,-1.26 1.596,-3.25 0,-1.919 -0.492,-3.179 -1.584,-3.179 -0.924,0 -1.595,1.128 -1.595,3.25 z" />
	</g><g
   id="g414"
   transform="matrix(0.92637352,0,0,0.92637352,-126.09518,329.41129)">
		<path
   inkscape:connector-curvature="0"
   id="path416"
   d="m 497.98,415.119 0,2.818 2.71,0 0,0.72 -2.71,0 0,2.843 -0.768,0 0,-2.843 -2.711,0 0,-0.72 2.711,0 0,-2.818 0.768,0 z" />
		<path
   inkscape:connector-curvature="0"
   id="path418"
   d="m 504.005,414.688 -0.023,0 -1.355,0.731 -0.204,-0.803 1.703,-0.912 0.899,0 0,7.796 -1.02,0 0,-6.812 z" />
		<path
   inkscape:connector-curvature="0"
   id="path420"
   d="m 512.271,416.367 c 0.684,0.468 1.079,1.319 1.079,2.194 0,2.135 -1.463,3.07 -2.782,3.07 -1.571,0 -2.782,-1.14 -2.782,-2.975 0,-1.942 1.235,-3.094 2.986,-3.094 0.323,0 0.947,0 1.115,0 l 0.636,0 c 0.396,0 1.091,0.012 1.307,0 l -0.035,0.804 c -0.276,0 -0.672,-0.013 -1.523,-0.049 l 0,0.05 z m -1.667,4.474 c 0.947,0 1.703,-0.96 1.703,-2.279 0,-0.983 -0.504,-2.207 -1.703,-2.207 -1.212,0 -1.751,1.151 -1.751,2.255 0,1.271 0.731,2.231 1.738,2.231 l 0.013,0 z" />
	</g><g
   id="g422"
   transform="matrix(0.92637352,0,0,0.92637352,-126.09518,329.41129)">
		<path
   inkscape:connector-curvature="0"
   id="path424"
   d="m 569.98,415.119 0,2.818 2.71,0 0,0.72 -2.71,0 0,2.843 -0.768,0 0,-2.843 -2.711,0 0,-0.72 2.711,0 0,-2.818 0.768,0 z" />
		<path
   inkscape:connector-curvature="0"
   id="path426"
   d="m 573.715,421.5 0,-0.647 0.827,-0.804 c 1.991,-1.895 2.891,-2.902 2.902,-4.078 0,-0.791 -0.384,-1.522 -1.547,-1.522 -0.708,0 -1.296,0.359 -1.655,0.659 l -0.336,-0.743 c 0.54,-0.456 1.308,-0.792 2.207,-0.792 1.679,0 2.387,1.151 2.387,2.267 0,1.439 -1.044,2.603 -2.687,4.186 l -0.624,0.576 0,0.023 3.502,0 0,0.876 -4.976,0 z" />
		<path
   inkscape:connector-curvature="0"
   id="path428"
   d="m 584.271,416.367 c 0.684,0.468 1.079,1.319 1.079,2.194 0,2.135 -1.463,3.07 -2.782,3.07 -1.571,0 -2.782,-1.14 -2.782,-2.975 0,-1.942 1.235,-3.094 2.986,-3.094 0.323,0 0.947,0 1.115,0 l 0.636,0 c 0.396,0 1.091,0.012 1.307,0 l -0.035,0.804 c -0.276,0 -0.672,-0.013 -1.523,-0.049 l 0,0.05 z m -1.667,4.474 c 0.947,0 1.703,-0.96 1.703,-2.279 0,-0.983 -0.504,-2.207 -1.703,-2.207 -1.212,0 -1.751,1.151 -1.751,2.255 0,1.271 0.731,2.231 1.738,2.231 l 0.013,0 z" />
	</g><g
   id="g430"
   transform="matrix(0.92637352,0,0,0.92637352,-126.09518,329.41129)">
		<path
   inkscape:connector-curvature="0"
   id="path432"
   d="m 641.98,415.119 0,2.818 2.71,0 0,0.72 -2.71,0 0,2.843 -0.768,0 0,-2.843 -2.711,0 0,-0.72 2.711,0 0,-2.818 0.768,0 z" />
		<path
   inkscape:connector-curvature="0"
   id="path434"
   d="m 645.967,420.289 c 0.3,0.191 0.995,0.491 1.727,0.491 1.355,0 1.775,-0.863 1.763,-1.511 -0.012,-1.092 -0.995,-1.56 -2.015,-1.56 l -0.588,0 0,-0.791 0.588,0 c 0.768,0 1.739,-0.396 1.739,-1.319 0,-0.624 -0.396,-1.176 -1.367,-1.176 -0.624,0 -1.224,0.276 -1.56,0.516 l -0.275,-0.768 c 0.407,-0.3 1.199,-0.6 2.039,-0.6 1.535,0 2.23,0.911 2.23,1.859 0,0.804 -0.479,1.487 -1.439,1.835 l 0,0.023 c 0.96,0.192 1.739,0.912 1.739,2.003 0,1.248 -0.972,2.339 -2.843,2.339 -0.875,0 -1.643,-0.275 -2.026,-0.527 l 0.288,-0.814 z" />
		<path
   inkscape:connector-curvature="0"
   id="path436"
   d="m 656.271,416.367 c 0.684,0.468 1.079,1.319 1.079,2.194 0,2.135 -1.463,3.07 -2.782,3.07 -1.571,0 -2.782,-1.14 -2.782,-2.975 0,-1.942 1.235,-3.094 2.986,-3.094 0.323,0 0.947,0 1.115,0 l 0.636,0 c 0.396,0 1.091,0.012 1.307,0 l -0.035,0.804 c -0.276,0 -0.672,-0.013 -1.523,-0.049 l 0,0.05 z m -1.667,4.474 c 0.947,0 1.703,-0.96 1.703,-2.279 0,-0.983 -0.504,-2.207 -1.703,-2.207 -1.212,0 -1.751,1.151 -1.751,2.255 0,1.271 0.731,2.231 1.738,2.231 l 0.013,0 z" />
	</g><g
   id="g438"
   transform="matrix(0.92637352,0,0,0.92637352,-126.09518,329.41129)">
		<path
   inkscape:connector-curvature="0"
   id="path440"
   d="m 713.98,415.119 0,2.818 2.71,0 0,0.72 -2.71,0 0,2.843 -0.768,0 0,-2.843 -2.711,0 0,-0.72 2.711,0 0,-2.818 0.768,0 z" />
		<path
   inkscape:connector-curvature="0"
   id="path442"
   d="m 720.977,421.5 0,-2.123 -3.622,0 0,-0.695 3.479,-4.978 1.14,0 0,4.846 1.091,0 0,0.827 -1.091,0 0,2.123 -0.997,0 z m 0,-2.95 0,-2.603 c 0,-0.408 0.012,-0.815 0.036,-1.224 l -0.036,0 c -0.239,0.456 -0.432,0.792 -0.647,1.151 l -1.907,2.65 0,0.024 2.554,0 z" />
		<path
   inkscape:connector-curvature="0"
   id="path444"
   d="m 728.271,416.367 c 0.684,0.468 1.079,1.319 1.079,2.194 0,2.135 -1.463,3.07 -2.782,3.07 -1.571,0 -2.782,-1.14 -2.782,-2.975 0,-1.942 1.235,-3.094 2.986,-3.094 0.323,0 0.947,0 1.115,0 l 0.636,0 c 0.396,0 1.091,0.012 1.307,0 l -0.035,0.804 c -0.276,0 -0.672,-0.013 -1.523,-0.049 l 0,0.05 z m -1.667,4.474 c 0.947,0 1.703,-0.96 1.703,-2.279 0,-0.983 -0.504,-2.207 -1.703,-2.207 -1.212,0 -1.751,1.151 -1.751,2.255 0,1.271 0.731,2.231 1.738,2.231 l 0.013,0 z" />
	</g>
<g
   id="_x39_5_x25_"
   transform="matrix(0.92637352,0,0,0.92637352,-126.09518,329.41129)">
	<g
   id="g827">
		<g
   id="g829">
			<line
   x1="294.56201"
   y1="294.93799"
   x2="569.43799"
   y2="294.93799"
   id="line831"
   style="fill:none;stroke:#606060" />
			<path
   d="m 570.618,294.425 c -0.826,-0.249 -1.364,-0.479 -2.026,-0.745 l 0,2.521 c 0.236,-0.112 1.2,-0.496 2.026,-0.746 0.885,-0.267 1.688,-0.449 2.208,-0.515 -0.52,-0.065 -1.323,-0.248 -2.208,-0.515 z"
   id="path833"
   inkscape:connector-curvature="0"
   style="fill:#606060" />
			<path
   d="m 293.382,295.45 c 0.826,0.249 1.364,0.479 2.027,0.745 l 0,-2.521 c -0.237,0.112 -1.201,0.496 -2.027,0.746 -0.885,0.267 -1.688,0.449 -2.208,0.515 0.52,0.065 1.323,0.248 2.208,0.515 z"
   id="path835"
   inkscape:connector-curvature="0"
   style="fill:#606060" />
		</g>
	</g>
	<line
   x1="290.88"
   y1="297.10001"
   x2="290.88"
   y2="292.78"
   id="line837"
   style="fill:none;stroke:#606060" />
	<line
   x1="573.12"
   y1="297.10001"
   x2="573.12"
   y2="292.78"
   id="line839"
   style="fill:none;stroke:#606060" />
	<g
   id="g841">
		<g
   id="g843">
			<path
   d="m 576.858,291.823 -0.02,0 -1.13,0.609 -0.17,-0.67 1.42,-0.759 0.749,0 0,6.496 -0.85,0 0,-5.676 z"
   id="path845"
   inkscape:connector-curvature="0"
   style="fill:#606060" />
			<path
   d="m 580.729,297.61 c -0.34,0 -0.58,-0.271 -0.58,-0.63 0,-0.37 0.25,-0.63 0.6,-0.63 0.35,0 0.59,0.26 0.59,0.63 0,0.359 -0.229,0.63 -0.6,0.63 l -0.01,0 z"
   id="path847"
   inkscape:connector-curvature="0"
   style="fill:#606060" />
			<path
   d="m 582.658,296.88 c 0.19,0.021 0.41,0 0.71,-0.029 0.51,-0.07 0.989,-0.28 1.359,-0.63 0.43,-0.39 0.739,-0.959 0.859,-1.729 l -0.03,0 c -0.359,0.44 -0.879,0.7 -1.528,0.7 -1.17,0 -1.919,-0.88 -1.919,-1.989 0,-1.229 0.889,-2.309 2.219,-2.309 1.329,0 2.148,1.079 2.148,2.738 0,1.43 -0.479,2.429 -1.119,3.049 -0.5,0.489 -1.189,0.789 -1.89,0.869 -0.319,0.05 -0.6,0.061 -0.81,0.05 l 0,-0.72 z m 1.59,-5.317 c -0.74,0 -1.27,0.659 -1.27,1.579 0,0.81 0.489,1.379 1.249,1.379 0.59,0 1.05,-0.29 1.279,-0.68 0.05,-0.08 0.08,-0.18 0.08,-0.319 0,-1.109 -0.409,-1.959 -1.329,-1.959 l -0.009,0 z"
   id="path849"
   inkscape:connector-curvature="0"
   style="fill:#606060" />
			<path
   d="m 588.479,294.082 c -0.72,-0.34 -1.029,-0.899 -1.029,-1.459 0,-1.03 0.869,-1.729 2.009,-1.729 1.259,0 1.889,0.79 1.889,1.6 0,0.549 -0.27,1.139 -1.069,1.519 l 0,0.03 c 0.81,0.319 1.31,0.89 1.31,1.679 0,1.13 -0.97,1.89 -2.209,1.89 -1.359,0 -2.179,-0.81 -2.179,-1.76 0,-0.819 0.489,-1.398 1.289,-1.738 l -0.011,-0.032 z m 2.218,1.729 c 0,-0.789 -0.55,-1.169 -1.43,-1.419 -0.76,0.22 -1.169,0.72 -1.169,1.34 -0.03,0.659 0.47,1.239 1.299,1.239 0.791,0 1.3,-0.5 1.3,-1.16 z m -2.419,-3.249 c 0,0.649 0.489,1 1.239,1.199 0.56,-0.189 0.989,-0.589 0.989,-1.179 0,-0.521 -0.31,-1.06 -1.1,-1.06 -0.728,0.001 -1.128,0.481 -1.128,1.04 z"
   id="path851"
   inkscape:connector-curvature="0"
   style="fill:#606060" />
			<path
   d="m 596.077,293.223 c 0.569,0.39 0.899,1.099 0.899,1.829 0,1.778 -1.22,2.559 -2.319,2.559 -1.309,0 -2.318,-0.95 -2.318,-2.479 0,-1.619 1.029,-2.578 2.488,-2.578 0.271,0 0.79,0 0.93,0 l 0.529,0 c 0.33,0 0.91,0.01 1.09,0 l -0.03,0.67 c -0.229,0 -0.56,-0.011 -1.269,-0.04 l 0,0.039 z m -1.389,3.727 c 0.789,0 1.419,-0.8 1.419,-1.898 0,-0.82 -0.42,-1.84 -1.419,-1.84 -1.01,0 -1.459,0.96 -1.459,1.88 0,1.059 0.609,1.858 1.449,1.858 l 0.01,0 z"
   id="path853"
   inkscape:connector-curvature="0"
   style="fill:#606060" />
		</g>
	</g>
	<g
   id="g855">
		<g
   id="g857">
			<path
   d="m 265.484,294.222 0,0.649 -2.469,0 0,-0.649 2.469,0 z"
   id="path859"
   inkscape:connector-curvature="0"
   style="fill:#606060" />
			<path
   d="m 268.145,291.573 -0.02,0 -1.13,0.609 -0.17,-0.67 1.42,-0.759 0.749,0 0,6.496 -0.85,0 0,-5.676 z"
   id="path861"
   inkscape:connector-curvature="0"
   style="fill:#606060" />
			<path
   d="m 272.016,297.36 c -0.34,0 -0.58,-0.271 -0.58,-0.63 0,-0.37 0.25,-0.63 0.6,-0.63 0.35,0 0.59,0.26 0.59,0.63 0,0.359 -0.229,0.63 -0.6,0.63 l -0.01,0 z"
   id="path863"
   inkscape:connector-curvature="0"
   style="fill:#606060" />
			<path
   d="m 273.945,296.63 c 0.189,0.021 0.409,0 0.709,-0.029 0.51,-0.07 0.989,-0.28 1.359,-0.63 0.43,-0.39 0.739,-0.959 0.859,-1.729 l -0.03,0 c -0.359,0.44 -0.879,0.7 -1.528,0.7 -1.17,0 -1.919,-0.88 -1.919,-1.989 0,-1.229 0.889,-2.309 2.219,-2.309 1.329,0 2.148,1.079 2.148,2.738 0,1.43 -0.479,2.429 -1.119,3.049 -0.5,0.489 -1.189,0.789 -1.89,0.869 -0.319,0.05 -0.6,0.061 -0.809,0.05 l 0,-0.72 z m 1.589,-5.317 c -0.74,0 -1.27,0.659 -1.27,1.579 0,0.81 0.489,1.379 1.249,1.379 0.59,0 1.05,-0.29 1.279,-0.68 0.05,-0.08 0.08,-0.18 0.08,-0.319 0,-1.109 -0.409,-1.959 -1.329,-1.959 l -0.009,0 z"
   id="path865"
   inkscape:connector-curvature="0"
   style="fill:#606060" />
			<path
   d="m 279.765,293.832 c -0.72,-0.34 -1.029,-0.899 -1.029,-1.459 0,-1.03 0.869,-1.729 2.009,-1.729 1.259,0 1.889,0.79 1.889,1.6 0,0.549 -0.27,1.139 -1.069,1.519 l 0,0.03 c 0.81,0.319 1.31,0.89 1.31,1.679 0,1.13 -0.97,1.89 -2.209,1.89 -1.359,0 -2.179,-0.81 -2.179,-1.76 0,-0.819 0.489,-1.398 1.289,-1.738 l -0.011,-0.032 z m 2.218,1.729 c 0,-0.789 -0.55,-1.169 -1.43,-1.419 -0.76,0.22 -1.169,0.72 -1.169,1.34 -0.03,0.659 0.47,1.239 1.299,1.239 0.791,0 1.3,-0.5 1.3,-1.16 z m -2.419,-3.249 c 0,0.649 0.489,1 1.239,1.199 0.56,-0.189 0.989,-0.589 0.989,-1.179 0,-0.521 -0.31,-1.06 -1.1,-1.06 -0.728,0.001 -1.128,0.481 -1.128,1.04 z"
   id="path867"
   inkscape:connector-curvature="0"
   style="fill:#606060" />
			<path
   d="m 287.363,292.973 c 0.569,0.39 0.899,1.099 0.899,1.829 0,1.778 -1.22,2.559 -2.319,2.559 -1.309,0 -2.318,-0.95 -2.318,-2.479 0,-1.619 1.029,-2.578 2.488,-2.578 0.271,0 0.79,0 0.93,0 l 0.529,0 c 0.33,0 0.91,0.01 1.09,0 l -0.03,0.67 c -0.229,0 -0.56,-0.011 -1.269,-0.04 l 0,0.039 z m -1.389,3.727 c 0.79,0 1.419,-0.8 1.419,-1.898 0,-0.82 -0.42,-1.84 -1.419,-1.84 -1.01,0 -1.459,0.96 -1.459,1.88 0,1.059 0.609,1.858 1.449,1.858 l 0.01,0 z"
   id="path869"
   inkscape:connector-curvature="0"
   style="fill:#606060" />
		</g>
	</g>
	<g
   id="g871">
		<g
   id="g873">
			<path
   d="m 396.796,304.997 c 0.228,0.023 0.492,0 0.852,-0.036 0.612,-0.084 1.188,-0.336 1.631,-0.756 0.516,-0.468 0.888,-1.151 1.032,-2.075 l -0.036,0 c -0.432,0.528 -1.055,0.84 -1.835,0.84 -1.403,0 -2.303,-1.056 -2.303,-2.387 0,-1.476 1.067,-2.771 2.663,-2.771 1.596,0 2.578,1.295 2.578,3.286 0,1.715 -0.575,2.915 -1.343,3.658 -0.6,0.588 -1.427,0.947 -2.267,1.043 -0.384,0.061 -0.72,0.072 -0.972,0.061 l 0,-0.863 z m 1.907,-6.381 c -0.887,0 -1.523,0.792 -1.523,1.895 0,0.972 0.588,1.655 1.499,1.655 0.708,0 1.259,-0.348 1.535,-0.815 0.06,-0.096 0.096,-0.216 0.096,-0.384 0,-1.331 -0.492,-2.351 -1.595,-2.351 l -0.012,0 z"
   id="path875"
   inkscape:connector-curvature="0"
   style="fill:#606060" />
			<path
   d="m 406.994,298.832 -2.975,0 -0.301,2.003 c 0.18,-0.024 0.348,-0.048 0.637,-0.048 0.6,0 1.199,0.132 1.679,0.42 0.611,0.348 1.115,1.02 1.115,2.003 0,1.522 -1.212,2.662 -2.902,2.662 -0.852,0 -1.571,-0.24 -1.942,-0.479 l 0.264,-0.804 c 0.323,0.192 0.959,0.432 1.666,0.432 0.996,0 1.848,-0.647 1.848,-1.691 -0.012,-1.007 -0.684,-1.727 -2.242,-1.727 -0.444,0 -0.792,0.048 -1.08,0.084 l 0.504,-3.742 3.73,0 0,0.887 z"
   id="path877"
   inkscape:connector-curvature="0"
   style="fill:#606060" />
			<path
   d="m 410.211,297.812 c 1.079,0 1.799,0.84 1.799,2.327 0,1.643 -0.863,2.458 -1.871,2.458 -0.971,0 -1.811,-0.791 -1.822,-2.351 0,-1.559 0.852,-2.435 1.883,-2.435 l 0.011,0 z m -0.061,0.636 c -0.646,0 -0.995,0.779 -0.995,1.763 -0.024,0.983 0.349,1.751 1.008,1.751 0.695,0 1.007,-0.743 1.007,-1.774 0,-0.947 -0.275,-1.739 -1.007,-1.739 l -0.013,0 z m -0.084,7.436 4.582,-8.083 0.672,0 -4.594,8.083 -0.66,0 z m 5.23,-4.845 c 1.079,0 1.787,0.839 1.787,2.326 0,1.644 -0.863,2.459 -1.858,2.459 -0.973,0 -1.812,-0.779 -1.824,-2.339 0,-1.571 0.852,-2.446 1.884,-2.446 l 0.011,0 z m -0.06,0.636 c -0.648,0 -1.008,0.779 -1.008,1.763 -0.012,0.995 0.372,1.751 1.02,1.751 0.695,0 1.008,-0.743 1.008,-1.775 0,-0.947 -0.276,-1.738 -1.008,-1.738 l -0.012,0 z"
   id="path879"
   inkscape:connector-curvature="0"
   style="fill:#606060" />
			<path
   d="m 426.133,302.79 c 0,2.146 -1.487,3.082 -2.891,3.082 -1.571,0 -2.783,-1.151 -2.783,-2.986 0,-1.942 1.271,-3.082 2.879,-3.082 1.668,0 2.795,1.211 2.795,2.986 z m -4.606,0.06 c 0,1.271 0.731,2.231 1.763,2.231 1.007,0 1.763,-0.948 1.763,-2.255 0,-0.983 -0.491,-2.231 -1.738,-2.231 -1.249,0 -1.788,1.151 -1.788,2.255 z"
   id="path881"
   inkscape:connector-curvature="0"
   style="fill:#606060" />
			<path
   d="m 427.575,305.74 0,-5.001 -0.815,0 0,-0.804 0.815,0 0,-0.276 c 0,-0.815 0.181,-1.559 0.672,-2.026 0.396,-0.384 0.923,-0.54 1.415,-0.54 0.371,0 0.695,0.084 0.899,0.168 l -0.144,0.815 c -0.156,-0.071 -0.372,-0.132 -0.672,-0.132 -0.899,0 -1.127,0.792 -1.127,1.68 l 0,0.312 1.402,0 0,0.804 -1.402,0 0,5.001 -1.043,0 z"
   id="path883"
   inkscape:connector-curvature="0"
   style="fill:#606060" />
			<path
   d="m 433.923,299.936 1.14,3.262 c 0.191,0.528 0.348,1.008 0.468,1.487 l 0.036,0 c 0.131,-0.479 0.299,-0.959 0.491,-1.487 l 1.128,-3.262 1.104,0 -2.279,5.805 -1.008,0 -2.207,-5.805 1.127,0 z"
   id="path885"
   inkscape:connector-curvature="0"
   style="fill:#606060" />
			<path
   d="m 443.316,304.349 c 0,0.504 0.024,0.996 0.097,1.392 l -0.96,0 -0.084,-0.731 -0.035,0 c -0.324,0.456 -0.947,0.863 -1.775,0.863 -1.176,0 -1.775,-0.827 -1.775,-1.667 0,-1.403 1.248,-2.171 3.49,-2.159 l 0,-0.119 c 0,-0.48 -0.132,-1.344 -1.319,-1.344 -0.54,0 -1.103,0.168 -1.511,0.432 l -0.24,-0.695 c 0.48,-0.312 1.176,-0.516 1.907,-0.516 1.774,0 2.206,1.211 2.206,2.374 l 0,2.17 z m -1.018,-1.571 c -1.151,-0.024 -2.459,0.18 -2.459,1.307 0,0.684 0.456,1.008 0.995,1.008 0.756,0 1.236,-0.479 1.404,-0.972 0.035,-0.107 0.06,-0.228 0.06,-0.336 l 0,-1.007 z"
   id="path887"
   inkscape:connector-curvature="0"
   style="fill:#606060" />
			<path
   d="m 445.023,297.225 1.055,0 0,8.516 -1.055,0 0,-8.516 z"
   id="path889"
   inkscape:connector-curvature="0"
   style="fill:#606060" />
			<path
   d="m 452.713,304.157 c 0,0.6 0.012,1.127 0.047,1.583 l -0.936,0 -0.06,-0.947 -0.024,0 c -0.275,0.468 -0.887,1.079 -1.918,1.079 -0.912,0 -2.004,-0.504 -2.004,-2.543 l 0,-3.394 1.057,0 0,3.214 c 0,1.104 0.336,1.848 1.295,1.848 0.707,0 1.199,-0.492 1.391,-0.96 0.061,-0.156 0.096,-0.348 0.096,-0.54 l 0,-3.562 1.057,0 0,4.222 z"
   id="path891"
   inkscape:connector-curvature="0"
   style="fill:#606060" />
			<path
   d="m 455.055,303.029 c 0.023,1.428 0.936,2.016 1.99,2.016 0.756,0 1.212,-0.132 1.607,-0.3 l 0.18,0.755 c -0.371,0.168 -1.007,0.372 -1.931,0.372 -1.787,0 -2.854,-1.188 -2.854,-2.938 0,-1.75 1.031,-3.13 2.723,-3.13 1.895,0 2.398,1.667 2.398,2.734 0,0.216 -0.023,0.384 -0.035,0.491 l -4.078,0 z m 3.093,-0.755 c 0.012,-0.672 -0.275,-1.716 -1.463,-1.716 -1.067,0 -1.535,0.984 -1.619,1.716 l 3.082,0 z"
   id="path893"
   inkscape:connector-curvature="0"
   style="fill:#606060" />
			<path
   d="m 460.335,304.661 c 0.312,0.203 0.864,0.42 1.392,0.42 0.768,0 1.127,-0.384 1.127,-0.864 0,-0.504 -0.3,-0.779 -1.079,-1.067 -1.044,-0.371 -1.535,-0.947 -1.535,-1.643 0,-0.936 0.755,-1.703 2.003,-1.703 0.588,0 1.104,0.168 1.428,0.359 l -0.265,0.768 c -0.228,-0.144 -0.647,-0.336 -1.187,-0.336 -0.625,0 -0.973,0.36 -0.973,0.792 0,0.479 0.348,0.695 1.104,0.983 1.008,0.384 1.523,0.888 1.523,1.751 0,1.02 -0.791,1.751 -2.171,1.751 -0.636,0 -1.224,-0.168 -1.631,-0.407 l 0.264,-0.804 z"
   id="path895"
   inkscape:connector-curvature="0"
   style="fill:#606060" />
		</g>
	</g>
</g>
<g
   id="_x39_9_x25_"
   transform="matrix(0.92637352,0,0,0.92637352,-126.09518,329.41129)">
	<g
   id="g898">
		<g
   id="g900">
			<line
   x1="249.84"
   y1="351.979"
   x2="614.15997"
   y2="351.979"
   id="line902"
   style="fill:none;stroke:#606060" />
			<path
   d="m 615.341,351.467 c -0.826,-0.25 -1.364,-0.479 -2.026,-0.746 l 0,2.522 c 0.236,-0.112 1.2,-0.496 2.026,-0.745 0.885,-0.268 1.688,-0.451 2.208,-0.516 -0.521,-0.065 -1.323,-0.248 -2.208,-0.515 z"
   id="path904"
   inkscape:connector-curvature="0"
   style="fill:#606060" />
			<path
   d="m 248.659,352.492 c 0.826,0.249 1.364,0.479 2.027,0.745 l 0,-2.521 c -0.237,0.112 -1.201,0.496 -2.027,0.745 -0.885,0.268 -1.688,0.45 -2.208,0.516 0.521,0.065 1.323,0.248 2.208,0.515 z"
   id="path906"
   inkscape:connector-curvature="0"
   style="fill:#606060" />
		</g>
	</g>
	<line
   x1="246.29201"
   y1="349.76099"
   x2="246.29201"
   y2="354.08099"
   id="line908"
   style="fill:none;stroke:#606060" />
	<line
   x1="617.76001"
   y1="349.82001"
   x2="617.76001"
   y2="354.14099"
   id="line910"
   style="fill:none;stroke:#606060" />
	<g
   id="g912">
		<g
   id="g914">
			<path
   d="m 220.567,351.641 0,0.649 -2.469,0 0,-0.649 2.469,0 z"
   id="path916"
   inkscape:connector-curvature="0"
   style="fill:#606060" />
			<path
   d="m 221.318,354.669 0,-0.54 0.689,-0.669 c 1.659,-1.579 2.409,-2.419 2.419,-3.398 0,-0.66 -0.32,-1.27 -1.29,-1.27 -0.589,0 -1.079,0.3 -1.379,0.55 l -0.28,-0.619 c 0.45,-0.38 1.089,-0.66 1.839,-0.66 1.399,0 1.989,0.96 1.989,1.889 0,1.199 -0.87,2.169 -2.239,3.488 l -0.52,0.479 0,0.021 2.918,0 0,0.729 -4.146,0 z"
   id="path918"
   inkscape:connector-curvature="0"
   style="fill:#606060" />
			<path
   d="m 227.098,354.779 c -0.34,0 -0.58,-0.271 -0.58,-0.63 0,-0.37 0.25,-0.63 0.6,-0.63 0.35,0 0.59,0.26 0.59,0.63 0,0.359 -0.23,0.63 -0.6,0.63 l -0.01,0 z"
   id="path920"
   inkscape:connector-curvature="0"
   style="fill:#606060" />
			<path
   d="m 232.396,348.912 -2.479,0 -0.25,1.669 c 0.15,-0.02 0.29,-0.04 0.53,-0.04 0.5,0 1,0.11 1.399,0.35 0.51,0.29 0.93,0.85 0.93,1.67 0,1.269 -1.009,2.219 -2.418,2.219 -0.71,0 -1.31,-0.2 -1.619,-0.4 l 0.22,-0.67 c 0.27,0.16 0.799,0.36 1.389,0.36 0.83,0 1.539,-0.54 1.539,-1.409 -0.01,-0.84 -0.569,-1.439 -1.869,-1.439 -0.37,0 -0.66,0.04 -0.9,0.07 l 0.42,-3.118 3.108,0 0,0.738 z"
   id="path922"
   inkscape:connector-curvature="0"
   style="fill:#606060" />
			<path
   d="m 234.847,351.251 c -0.719,-0.34 -1.029,-0.899 -1.029,-1.459 0,-1.03 0.87,-1.729 2.009,-1.729 1.259,0 1.889,0.79 1.889,1.6 0,0.549 -0.27,1.139 -1.069,1.519 l 0,0.03 c 0.81,0.319 1.309,0.89 1.309,1.679 0,1.13 -0.969,1.89 -2.208,1.89 -1.359,0 -2.179,-0.81 -2.179,-1.76 0,-0.819 0.49,-1.398 1.29,-1.738 l -0.012,-0.032 z m 2.218,1.728 c 0,-0.789 -0.549,-1.169 -1.429,-1.419 -0.759,0.22 -1.169,0.72 -1.169,1.34 -0.03,0.659 0.47,1.239 1.299,1.239 0.79,10e-4 1.299,-0.499 1.299,-1.16 z m -2.418,-3.248 c 0,0.649 0.49,1 1.239,1.199 0.56,-0.189 0.99,-0.589 0.99,-1.179 0,-0.52 -0.31,-1.06 -1.1,-1.06 -0.729,0.001 -1.129,0.481 -1.129,1.04 z"
   id="path924"
   inkscape:connector-curvature="0"
   style="fill:#606060" />
			<path
   d="m 242.445,350.392 c 0.57,0.39 0.899,1.099 0.899,1.829 0,1.778 -1.219,2.559 -2.318,2.559 -1.31,0 -2.319,-0.95 -2.319,-2.479 0,-1.619 1.029,-2.578 2.489,-2.578 0.27,0 0.79,0 0.929,0 l 0.53,0 c 0.33,0 0.91,0.01 1.089,0 l -0.03,0.67 c -0.23,0 -0.56,-0.011 -1.27,-0.04 l 0,0.039 z m -1.389,3.727 c 0.79,0 1.419,-0.8 1.419,-1.898 0,-0.82 -0.42,-1.84 -1.419,-1.84 -1.009,0 -1.459,0.96 -1.459,1.88 0,1.059 0.609,1.858 1.449,1.858 l 0.01,0 z"
   id="path926"
   inkscape:connector-curvature="0"
   style="fill:#606060" />
		</g>
	</g>
	<g
   id="g928">
		<g
   id="g930">
			<path
   d="m 621.783,355.002 0,-0.54 0.689,-0.669 c 1.66,-1.579 2.409,-2.419 2.42,-3.398 0,-0.66 -0.32,-1.27 -1.29,-1.27 -0.589,0 -1.079,0.3 -1.379,0.55 l -0.28,-0.619 c 0.45,-0.38 1.09,-0.66 1.84,-0.66 1.398,0 1.988,0.96 1.988,1.889 0,1.199 -0.869,2.169 -2.238,3.488 l -0.52,0.479 0,0.021 2.918,0 0,0.729 -4.148,0 z"
   id="path932"
   inkscape:connector-curvature="0"
   style="fill:#606060" />
			<path
   d="m 627.563,355.112 c -0.34,0 -0.58,-0.271 -0.58,-0.63 0,-0.37 0.25,-0.63 0.601,-0.63 0.35,0 0.589,0.26 0.589,0.63 0,0.359 -0.229,0.63 -0.6,0.63 l -0.01,0 z"
   id="path934"
   inkscape:connector-curvature="0"
   style="fill:#606060" />
			<path
   d="m 632.861,349.245 -2.479,0 -0.25,1.669 c 0.15,-0.02 0.29,-0.04 0.529,-0.04 0.5,0 1,0.11 1.399,0.35 0.51,0.29 0.93,0.85 0.93,1.67 0,1.269 -1.009,2.219 -2.419,2.219 -0.709,0 -1.309,-0.2 -1.619,-0.4 l 0.221,-0.67 c 0.27,0.16 0.799,0.36 1.389,0.36 0.83,0 1.539,-0.54 1.539,-1.409 -0.01,-0.84 -0.569,-1.439 -1.869,-1.439 -0.369,0 -0.659,0.04 -0.898,0.07 l 0.419,-3.118 3.108,0 0,0.738 z"
   id="path936"
   inkscape:connector-curvature="0"
   style="fill:#606060" />
			<path
   d="m 635.312,351.584 c -0.719,-0.34 -1.029,-0.899 -1.029,-1.459 0,-1.03 0.869,-1.729 2.009,-1.729 1.259,0 1.89,0.79 1.89,1.6 0,0.549 -0.271,1.139 -1.07,1.519 l 0,0.03 c 0.811,0.319 1.31,0.89 1.31,1.679 0,1.13 -0.97,1.89 -2.208,1.89 -1.359,0 -2.18,-0.81 -2.18,-1.76 0,-0.819 0.49,-1.398 1.289,-1.738 l -0.011,-0.032 z m 2.219,1.728 c 0,-0.789 -0.549,-1.169 -1.43,-1.419 -0.759,0.22 -1.168,0.72 -1.168,1.34 -0.031,0.659 0.469,1.239 1.299,1.239 0.789,0.001 1.299,-0.499 1.299,-1.16 z m -2.418,-3.248 c 0,0.649 0.489,1 1.238,1.199 0.561,-0.189 0.99,-0.589 0.99,-1.179 0,-0.52 -0.311,-1.06 -1.1,-1.06 -0.728,10e-4 -1.128,0.481 -1.128,1.04 z"
   id="path938"
   inkscape:connector-curvature="0"
   style="fill:#606060" />
			<path
   d="m 642.911,350.725 c 0.569,0.39 0.899,1.099 0.899,1.829 0,1.778 -1.219,2.559 -2.318,2.559 -1.31,0 -2.318,-0.95 -2.318,-2.479 0,-1.619 1.029,-2.578 2.488,-2.578 0.27,0 0.789,0 0.93,0 l 0.529,0 c 0.33,0 0.91,0.01 1.09,0 l -0.03,0.67 c -0.229,0 -0.56,-0.011 -1.27,-0.04 l 0,0.039 z m -1.39,3.727 c 0.79,0 1.42,-0.8 1.42,-1.898 0,-0.82 -0.42,-1.84 -1.42,-1.84 -1.009,0 -1.459,0.96 -1.459,1.88 0,1.059 0.609,1.858 1.449,1.858 l 0.01,0 z"
   id="path940"
   inkscape:connector-curvature="0"
   style="fill:#606060" />
		</g>
	</g>
	<g
   id="g942">
		<g
   id="g944">
			<path
   d="m 396.796,361.757 c 0.228,0.023 0.492,0 0.852,-0.036 0.612,-0.084 1.188,-0.336 1.631,-0.756 0.516,-0.468 0.888,-1.151 1.032,-2.075 l -0.036,0 c -0.432,0.528 -1.055,0.84 -1.835,0.84 -1.403,0 -2.303,-1.056 -2.303,-2.387 0,-1.476 1.067,-2.771 2.663,-2.771 1.596,0 2.578,1.295 2.578,3.286 0,1.715 -0.575,2.915 -1.343,3.658 -0.6,0.588 -1.427,0.947 -2.267,1.043 -0.384,0.061 -0.72,0.072 -0.972,0.061 l 0,-0.863 z m 1.907,-6.381 c -0.887,0 -1.523,0.792 -1.523,1.895 0,0.972 0.588,1.655 1.499,1.655 0.708,0 1.259,-0.348 1.535,-0.815 0.06,-0.096 0.096,-0.216 0.096,-0.384 0,-1.331 -0.492,-2.351 -1.595,-2.351 l -0.012,0 z"
   id="path946"
   inkscape:connector-curvature="0"
   style="fill:#606060" />
			<path
   d="m 402.951,361.757 c 0.229,0.023 0.492,0 0.852,-0.036 0.612,-0.084 1.188,-0.336 1.631,-0.756 0.517,-0.468 0.889,-1.151 1.032,-2.075 l -0.036,0 c -0.432,0.528 -1.055,0.84 -1.835,0.84 -1.403,0 -2.303,-1.056 -2.303,-2.387 0,-1.476 1.067,-2.771 2.663,-2.771 1.595,0 2.578,1.295 2.578,3.286 0,1.715 -0.576,2.915 -1.344,3.658 -0.6,0.588 -1.427,0.947 -2.266,1.043 -0.385,0.061 -0.721,0.072 -0.973,0.061 l 0,-0.863 z m 1.907,-6.381 c -0.888,0 -1.522,0.792 -1.522,1.895 0,0.972 0.588,1.655 1.498,1.655 0.708,0 1.26,-0.348 1.535,-0.815 0.061,-0.096 0.097,-0.216 0.097,-0.384 0,-1.331 -0.491,-2.351 -1.595,-2.351 l -0.013,0 z"
   id="path948"
   inkscape:connector-curvature="0"
   style="fill:#606060" />
			<path
   d="m 410.211,354.572 c 1.079,0 1.799,0.84 1.799,2.327 0,1.643 -0.863,2.458 -1.871,2.458 -0.971,0 -1.811,-0.791 -1.822,-2.351 0,-1.559 0.852,-2.435 1.883,-2.435 l 0.011,0 z m -0.061,0.636 c -0.646,0 -0.995,0.779 -0.995,1.763 -0.024,0.983 0.349,1.751 1.008,1.751 0.695,0 1.007,-0.743 1.007,-1.774 0,-0.947 -0.275,-1.739 -1.007,-1.739 l -0.013,0 z m -0.084,7.436 4.582,-8.083 0.672,0 -4.594,8.083 -0.66,0 z m 5.23,-4.845 c 1.079,0 1.787,0.839 1.787,2.326 0,1.644 -0.863,2.459 -1.858,2.459 -0.973,0 -1.812,-0.779 -1.824,-2.339 0,-1.571 0.852,-2.446 1.884,-2.446 l 0.011,0 z m -0.06,0.636 c -0.648,0 -1.008,0.779 -1.008,1.763 -0.012,0.995 0.372,1.751 1.02,1.751 0.695,0 1.008,-0.743 1.008,-1.775 0,-0.947 -0.276,-1.738 -1.008,-1.738 l -0.012,0 z"
   id="path950"
   inkscape:connector-curvature="0"
   style="fill:#606060" />
			<path
   d="m 426.133,359.55 c 0,2.146 -1.487,3.082 -2.891,3.082 -1.571,0 -2.783,-1.151 -2.783,-2.986 0,-1.942 1.271,-3.082 2.879,-3.082 1.668,-0.001 2.795,1.21 2.795,2.986 z m -4.606,0.059 c 0,1.271 0.731,2.231 1.763,2.231 1.007,0 1.763,-0.948 1.763,-2.255 0,-0.983 -0.491,-2.231 -1.738,-2.231 -1.249,0 -1.788,1.152 -1.788,2.255 z"
   id="path952"
   inkscape:connector-curvature="0"
   style="fill:#606060" />
			<path
   d="m 427.575,362.5 0,-5.001 -0.815,0 0,-0.804 0.815,0 0,-0.276 c 0,-0.815 0.181,-1.559 0.672,-2.026 0.396,-0.384 0.923,-0.54 1.415,-0.54 0.371,0 0.695,0.084 0.899,0.168 l -0.144,0.815 c -0.156,-0.071 -0.372,-0.132 -0.672,-0.132 -0.899,0 -1.127,0.792 -1.127,1.68 l 0,0.312 1.402,0 0,0.804 -1.402,0 0,5.001 -1.043,0 z"
   id="path954"
   inkscape:connector-curvature="0"
   style="fill:#606060" />
			<path
   d="m 433.923,356.695 1.14,3.262 c 0.191,0.528 0.348,1.008 0.468,1.487 l 0.036,0 c 0.131,-0.479 0.299,-0.959 0.491,-1.487 l 1.128,-3.262 1.104,0 -2.279,5.805 -1.008,0 -2.207,-5.805 1.127,0 z"
   id="path956"
   inkscape:connector-curvature="0"
   style="fill:#606060" />
			<path
   d="m 443.316,361.108 c 0,0.504 0.024,0.996 0.097,1.392 l -0.96,0 -0.084,-0.731 -0.035,0 c -0.324,0.456 -0.947,0.863 -1.775,0.863 -1.176,0 -1.775,-0.827 -1.775,-1.667 0,-1.403 1.248,-2.171 3.49,-2.159 l 0,-0.119 c 0,-0.48 -0.132,-1.344 -1.319,-1.344 -0.54,0 -1.103,0.168 -1.511,0.432 l -0.24,-0.695 c 0.48,-0.312 1.176,-0.516 1.907,-0.516 1.774,0 2.206,1.211 2.206,2.374 l 0,2.17 z m -1.018,-1.57 c -1.151,-0.024 -2.459,0.18 -2.459,1.307 0,0.684 0.456,1.008 0.995,1.008 0.756,0 1.236,-0.479 1.404,-0.972 0.035,-0.107 0.06,-0.228 0.06,-0.336 l 0,-1.007 z"
   id="path958"
   inkscape:connector-curvature="0"
   style="fill:#606060" />
			<path
   d="m 445.023,353.984 1.055,0 0,8.516 -1.055,0 0,-8.516 z"
   id="path960"
   inkscape:connector-curvature="0"
   style="fill:#606060" />
			<path
   d="m 452.713,360.917 c 0,0.6 0.012,1.127 0.047,1.583 l -0.936,0 -0.06,-0.947 -0.024,0 c -0.275,0.468 -0.887,1.079 -1.918,1.079 -0.912,0 -2.004,-0.504 -2.004,-2.543 l 0,-3.394 1.057,0 0,3.214 c 0,1.104 0.336,1.848 1.295,1.848 0.707,0 1.199,-0.492 1.391,-0.96 0.061,-0.156 0.096,-0.348 0.096,-0.54 l 0,-3.562 1.057,0 0,4.222 z"
   id="path962"
   inkscape:connector-curvature="0"
   style="fill:#606060" />
			<path
   d="m 455.055,359.789 c 0.023,1.428 0.936,2.016 1.99,2.016 0.756,0 1.212,-0.132 1.607,-0.3 l 0.18,0.755 c -0.371,0.168 -1.007,0.372 -1.931,0.372 -1.787,0 -2.854,-1.188 -2.854,-2.938 0,-1.75 1.031,-3.13 2.723,-3.13 1.895,0 2.398,1.667 2.398,2.734 0,0.216 -0.023,0.384 -0.035,0.491 l -4.078,0 z m 3.093,-0.755 c 0.012,-0.672 -0.275,-1.716 -1.463,-1.716 -1.067,0 -1.535,0.984 -1.619,1.716 l 3.082,0 z"
   id="path964"
   inkscape:connector-curvature="0"
   style="fill:#606060" />
			<path
   d="m 460.335,361.421 c 0.312,0.203 0.864,0.42 1.392,0.42 0.768,0 1.127,-0.384 1.127,-0.864 0,-0.504 -0.3,-0.779 -1.079,-1.067 -1.044,-0.371 -1.535,-0.947 -1.535,-1.643 0,-0.936 0.755,-1.703 2.003,-1.703 0.588,0 1.104,0.168 1.428,0.359 l -0.265,0.768 c -0.228,-0.144 -0.647,-0.336 -1.187,-0.336 -0.625,0 -0.973,0.36 -0.973,0.792 0,0.479 0.348,0.695 1.104,0.983 1.008,0.384 1.523,0.888 1.523,1.751 0,1.02 -0.791,1.751 -2.171,1.751 -0.636,0 -1.224,-0.168 -1.631,-0.407 l 0.264,-0.804 z"
   id="path966"
   inkscape:connector-curvature="0"
   style="fill:#606060" />
		</g>
	</g>
</g>
<rect
   style="opacity:1;fill:#42a5f5;fill-opacity:0.49803922;stroke:none;stroke-width:2.33800006;stroke-linecap:butt;stroke-linejoin:miter;stroke-miterlimit:4;stroke-dasharray:none;stroke-dashoffset:0;stroke-opacity:1"
   id="gd4"
   width="33.5"
   height="687.66211"
   x="140.66325"
   y="16.337891"
   inkscape:label="" /><rect
   inkscape:label=""
   y="16.337891"
   x="107.18901"
   height="687.66211"
   width="33.5"
   id="gd3"
   style="opacity:1;fill:#42a5f5;fill-opacity:0.49803922;stroke:none;stroke-width:2.33800006;stroke-linecap:butt;stroke-linejoin:miter;stroke-miterlimit:4;stroke-dasharray:none;stroke-dashoffset:0;stroke-opacity:1" /><rect
   style="opacity:1;fill:#42a5f5;fill-opacity:0.49803922;stroke:none;stroke-width:2.33800006;stroke-linecap:butt;stroke-linejoin:miter;stroke-miterlimit:4;stroke-dasharray:none;stroke-dashoffset:0;stroke-opacity:1"
   id="gd2"
   width="33.5"
   height="687.66211"
   x="73.693451"
   y="16.337891"
   inkscape:label="" /><rect
   inkscape:label=""
   y="16.337891"
   x="174.12964"
   height="687.66211"
   width="33.5"
   id="gd5"
   style="opacity:1;fill:#42a5f5;fill-opacity:0.49803922;stroke:none;stroke-width:2.33800006;stroke-linecap:butt;stroke-linejoin:miter;stroke-miterlimit:4;stroke-dasharray:none;stroke-dashoffset:0;stroke-opacity:1" /><rect
   style="opacity:1;fill:#42a5f5;fill-opacity:0.49803922;stroke:none;stroke-width:2.33800006;stroke-linecap:butt;stroke-linejoin:miter;stroke-miterlimit:4;stroke-dasharray:none;stroke-dashoffset:0;stroke-opacity:1"
   id="gd6"
   width="33.5"
   height="687.66211"
   x="207.62148"
   y="16.337891"
   inkscape:label="" /><rect
   inkscape:label=""
   y="16.337891"
   x="241.12659"
   height="687.66211"
   width="33.5"
   id="gd7"
   style="opacity:1;fill:#42a5f5;fill-opacity:0.49803922;stroke:none;stroke-width:2.33800006;stroke-linecap:butt;stroke-linejoin:miter;stroke-miterlimit:4;stroke-dasharray:none;stroke-dashoffset:0;stroke-opacity:1" /><rect
   inkscape:label=""
   y="16.337891"
   x="40.195576"
   height="687.66211"
   width="33.5"
   id="gd1"
   style="opacity:1;fill:#42a5f5;fill-opacity:0.49803922;stroke:none;stroke-width:2.33800006;stroke-linecap:butt;stroke-linejoin:miter;stroke-miterlimit:4;stroke-dasharray:none;stroke-dashoffset:0;stroke-opacity:1" /><rect
   style="opacity:1;fill:#42a5f5;fill-opacity:0.49803922;stroke:none;stroke-width:2.33800006;stroke-linecap:butt;stroke-linejoin:miter;stroke-miterlimit:4;stroke-dasharray:none;stroke-dashoffset:0;stroke-opacity:1"
   id="gd0"
   width="33.5"
   height="687.66211"
   x="6.7006378"
   y="16.337891"
   inkscape:label="" /><rect
   inkscape:label=""
   y="16.337891"
   x="408.41791"
   height="687.66211"
   width="33.5"
   id="gd12"
   style="opacity:1;fill:#42a5f5;fill-opacity:0.49803922;stroke:none;stroke-width:2.33800006;stroke-linecap:butt;stroke-linejoin:miter;stroke-miterlimit:4;stroke-dasharray:none;stroke-dashoffset:0;stroke-opacity:1" /><rect
   style="opacity:1;fill:#42a5f5;fill-opacity:0.49803922;stroke:none;stroke-width:2.33800006;stroke-linecap:butt;stroke-linejoin:miter;stroke-miterlimit:4;stroke-dasharray:none;stroke-dashoffset:0;stroke-opacity:1"
   id="gd11"
   width="33.5"
   height="687.66211"
   x="374.94366"
   y="16.337891"
   inkscape:label="" /><rect
   inkscape:label=""
   y="16.337891"
   x="341.44809"
   height="687.66211"
   width="33.5"
   id="gd10"
   style="opacity:1;fill:#42a5f5;fill-opacity:0.49803922;stroke:none;stroke-width:2.33800006;stroke-linecap:butt;stroke-linejoin:miter;stroke-miterlimit:4;stroke-dasharray:none;stroke-dashoffset:0;stroke-opacity:1" /><rect
   style="opacity:1;fill:#42a5f5;fill-opacity:0.49803922;stroke:none;stroke-width:2.33800006;stroke-linecap:butt;stroke-linejoin:miter;stroke-miterlimit:4;stroke-dasharray:none;stroke-dashoffset:0;stroke-opacity:1"
   id="gd13"
   width="33.5"
   height="687.66211"
   x="441.88428"
   y="16.337891"
   inkscape:label="" /><rect
   inkscape:label=""
   y="16.337891"
   x="475.3761"
   height="687.66211"
   width="33.5"
   id="gd14"
   style="opacity:1;fill:#42a5f5;fill-opacity:0.49803922;stroke:none;stroke-width:2.33800006;stroke-linecap:butt;stroke-linejoin:miter;stroke-miterlimit:4;stroke-dasharray:none;stroke-dashoffset:0;stroke-opacity:1" /><rect
   style="opacity:1;fill:#42a5f5;fill-opacity:0.49803922;stroke:none;stroke-width:2.33800006;stroke-linecap:butt;stroke-linejoin:miter;stroke-miterlimit:4;stroke-dasharray:none;stroke-dashoffset:0;stroke-opacity:1"
   id="gd15"
   width="33.5"
   height="687.66211"
   x="508.88123"
   y="16.337891"
   inkscape:label="" /><rect
   style="opacity:1;fill:#42a5f5;fill-opacity:0.49803922;stroke:none;stroke-width:2.33800006;stroke-linecap:butt;stroke-linejoin:miter;stroke-miterlimit:4;stroke-dasharray:none;stroke-dashoffset:0;stroke-opacity:1"
   id="gd9"
   width="33.5"
   height="687.66211"
   x="307.9502"
   y="16.337891"
   inkscape:label="" /><rect
   inkscape:label=""
   y="16.337891"
   x="274.45526"
   height="687.66211"
   width="33.5"
   id="gd8"
   style="opacity:1;fill:#42a5f5;fill-opacity:0.49803922;stroke:none;stroke-width:2.33800006;stroke-linecap:butt;stroke-linejoin:miter;stroke-miterlimit:4;stroke-dasharray:none;stroke-dashoffset:0;stroke-opacity:1" /></svg>