<svg xmlns="http://www.w3.org/2000/svg" style="max-height:720px" viewBox="0 0 550 720" id="svg2">
  <path id="path11" d="M540.894 694.866c-25.92 0-47.81-6.448-66.67-17.342-27.46-15.842-48.506-41.103-66.22-69.59-25.937-41.695-44.752-90.302-66.132-126.468-18.556-31.385-39.038-53.396-67.774-53.396-28.81 0-49.32 22.122-67.912 53.628-21.344 36.175-40.15 84.717-66.06 126.348-17.86 28.698-39.102 54.11-66.884 69.895-18.694 10.645-40.353 16.926-65.94 16.926" fill="none" stroke="#000" stroke-width=".926"/>
  <polyline id="polyline17" points="432 412.5 432 403.5 432 106.5 432 88.5" transform="matrix(.92637 0 0 2.12963 -126.095 -175.256)" fill="none" stroke="#000" stroke-width="1.5"/>
  <g id="g19">
    <g id="g21" transform="matrix(.92637 0 0 .92637 -126.095 329.41)">
      <polyline id="polyline23" points="720 403.5 648 403.5 576 403.5 504 403.5 432 403.5 360.17 403.5 288 403.5 216.16 403.5 144 403.5" fill="none" stroke="#000" stroke-width="1.5"/>
      <path id="path25" d="M141.343 404.653c1.86.562 3.07 1.08 4.56 1.678v-5.674c-.533.254-2.7 1.116-4.56 1.678-1.99.602-3.795 1.014-4.966 1.16 1.17.147 2.975.558 4.966 1.16z"/>
      <path id="path27" d="M722.657 402.347c-1.86-.562-3.07-1.08-4.562-1.678v5.674c.534-.254 2.7-1.117 4.562-1.678 1.99-.602 3.796-1.014 4.966-1.16-1.17-.147-2.976-.558-4.966-1.16z"/>
    </g>
  </g>
  <line id="line29" y2="482.105" x2="340.797" y1="703.203" x1="340.797" fill="none" stroke="#606060" stroke-width=".926" stroke-dasharray="4.632"/>
  <line id="line31" y2="482.42" x2="207.399" y1="703.203" x1="207.557" fill="none" stroke="#606060" stroke-width=".926" stroke-dasharray="4.632"/>
  <line id="line33" y2="608.25" x2="407.496" y1="703.203" x1="407.496" fill="none" stroke="#606060" stroke-width=".926" stroke-dasharray="4.632"/>
  <line id="line35" y2="608.407" x2="140.7" y1="703.203" x1="140.7" fill="none" stroke="#606060" stroke-width=".926" stroke-dasharray="4.632"/>
  <line id="line37" y2="677.57" x2="474.195" y1="703.203" x1="474.195" fill="none" stroke="#606060" stroke-width=".926" stroke-dasharray="4.632"/>
  <polyline id="polyline39" points="216.17 404.33 216.16 403.5 216 377.67" transform="matrix(.92637 0 0 .92637 -126.095 329.41)" fill="none" stroke="#606060" stroke-dasharray="5"/>
  <g id="g188" fill="#606060">
    <path id="path190" d="M229.444 679.35c-.296.37-.833.722-1.407.722-.537 0-.888-.212-1.185-.34-.278-.113-.593-.316-1.056-.316-.425 0-.842.287-1.092.546l-.324-.39c.296-.35.833-.712 1.416-.712.547 0 .88.212 1.185.332.28.12.585.315 1.047.315.426 0 .843-.295 1.074-.537l.344.38zm.037 1.825c-.295.38-.842.732-1.415.732-.527 0-.87-.213-1.176-.334-.28-.11-.594-.315-1.065-.315-.408 0-.833.278-1.083.547l-.315-.4c.287-.35.833-.703 1.407-.703.547 0 .88.204 1.185.334.277.11.592.315 1.045.315.435 0 .85-.277 1.083-.546l.333.37z"/>
    <path id="path192" d="M236.07 679.75c0 2.045-.76 3.176-2.094 3.176-1.176 0-1.972-1.102-1.99-3.094 0-2.018.87-3.13 2.092-3.13 1.268 0 1.99 1.13 1.99 3.047zm-3.27.092c0 1.563.482 2.453 1.222 2.453.833 0 1.23-.973 1.23-2.51 0-1.48-.378-2.453-1.22-2.453-.714 0-1.232.87-1.232 2.51z"/>
    <path id="path194" d="M237.423 682.925c-.315 0-.537-.25-.537-.584 0-.342.23-.583.556-.583.324 0 .545.24.545.584 0 .334-.213.585-.556.585h-.007z"/>
    <path id="path196" d="M238.933 681.887c.232.148.77.38 1.333.38 1.046 0 1.37-.667 1.36-1.167-.008-.842-.768-1.204-1.554-1.204h-.454v-.61h.454c.592 0 1.342-.306 1.342-1.02 0-.482-.306-.906-1.056-.906-.482 0-.945.212-1.204.398l-.213-.593c.316-.23.928-.463 1.575-.463 1.185 0 1.722.704 1.722 1.435 0 .62-.37 1.148-1.11 1.417v.02c.74.146 1.342.703 1.342 1.545 0 .962-.75 1.805-2.196 1.805-.675 0-1.268-.213-1.564-.408l.223-.63z"/>
    <path id="path198" d="M246.01 682.823v-1.64h-2.797v-.536l2.685-3.842h.88v3.74h.842v.64h-.842v1.638h-.77zm0-2.278v-2.01c0-.314.01-.628.026-.943h-.027c-.186.35-.334.61-.5.888l-1.473 2.046v.02h1.972z"/>
    <path id="path200" d="M250.01 677.564h-.018l-1.047.564-.157-.62 1.315-.704h.694v6.018h-.787v-5.258z"/>
    <path id="path202" d="M253.19 681.887c.23.148.768.38 1.332.38 1.047 0 1.37-.667 1.362-1.167-.01-.842-.77-1.204-1.556-1.204h-.453v-.61h.453c.592 0 1.342-.306 1.342-1.02 0-.482-.305-.906-1.055-.906-.483 0-.945.212-1.205.398l-.212-.593c.315-.23.926-.463 1.574-.463 1.185 0 1.72.704 1.72 1.435 0 .62-.368 1.148-1.11 1.417v.02c.742.146 1.343.703 1.343 1.545 0 .962-.75 1.805-2.195 1.805-.675 0-1.268-.213-1.563-.408l.222-.63z"/>
  </g>
  <g id="g204" fill="#606060">
    <path id="path206" d="M162.745 679.35c-.296.37-.833.722-1.407.722-.537 0-.888-.212-1.185-.34-.278-.113-.593-.316-1.056-.316-.425 0-.842.287-1.092.546l-.324-.39c.297-.35.834-.712 1.417-.712.547 0 .88.212 1.185.332.278.12.584.315 1.046.315.426 0 .843-.295 1.075-.537l.342.38zm.037 1.825c-.296.38-.843.732-1.416.732-.527 0-.87-.213-1.176-.334-.278-.11-.593-.315-1.064-.315-.408 0-.833.278-1.083.547l-.315-.4c.287-.35.833-.703 1.407-.703.547 0 .88.204 1.185.334.278.11.593.315 1.046.315.435 0 .85-.277 1.083-.546l.332.37z"/>
    <path id="path208" d="M169.37 679.75c0 2.045-.76 3.176-2.093 3.176-1.176 0-1.972-1.102-1.99-3.094 0-2.018.87-3.13 2.092-3.13 1.267 0 1.99 1.13 1.99 3.047zm-3.268.092c0 1.563.48 2.453 1.22 2.453.834 0 1.233-.973 1.233-2.51 0-1.48-.38-2.453-1.222-2.453-.714 0-1.23.87-1.23 2.51z"/>
    <path id="path210" d="M170.724 682.925c-.315 0-.537-.25-.537-.584 0-.342.23-.583.556-.583.324 0 .545.24.545.584 0 .334-.213.585-.556.585h-.008z"/>
    <path id="path212" d="M173.808 677.564h-.018l-1.046.564-.158-.62 1.315-.704h.695v6.018h-.786v-5.258z"/>
    <path id="path214" d="M176.986 681.887c.23.148.768.38 1.333.38 1.045 0 1.37-.667 1.36-1.167-.01-.842-.77-1.204-1.555-1.204h-.454v-.61h.455c.592 0 1.342-.306 1.342-1.02 0-.482-.305-.906-1.055-.906-.482 0-.945.212-1.204.398l-.213-.593c.315-.23.926-.463 1.575-.463 1.184 0 1.72.704 1.72 1.435 0 .62-.37 1.148-1.11 1.417v.02c.74.146 1.342.703 1.342 1.545 0 .962-.75 1.805-2.194 1.805-.675 0-1.268-.213-1.564-.408l.222-.63z"/>
    <path id="path216" d="M185.136 677.49h-2.297l-.232 1.546c.14-.02.268-.037.49-.037.464 0 .926.1 1.297.323.472.27.86.787.86 1.547 0 1.176-.934 2.056-2.24 2.056-.657 0-1.213-.186-1.5-.37l.204-.62c.25.147.74.332 1.287.332.768 0 1.426-.5 1.426-1.305-.01-.78-.528-1.333-1.732-1.333-.342 0-.61.037-.832.064l.39-2.888h2.878v.684z"/>
    <path id="path218" d="M186.768 682.248c.176.02.38 0 .658-.026.472-.065.916-.26 1.26-.584.397-.36.683-.888.794-1.602h-.027c-.333.408-.815.65-1.416.65-1.084 0-1.778-.816-1.778-1.844 0-1.138.823-2.14 2.055-2.14 1.23 0 1.99 1 1.99 2.538 0 1.324-.444 2.25-1.037 2.824-.463.453-1.1.73-1.75.805-.296.045-.556.056-.75.045v-.667zm1.472-4.925c-.685 0-1.176.61-1.176 1.463 0 .75.453 1.277 1.157 1.277.547 0 .973-.27 1.185-.63.047-.074.075-.167.075-.295 0-1.028-.38-1.815-1.232-1.815h-.008z"/>
  </g>
  <g id="g220" fill="#606060">
    <path id="path222" d="M362.842 679.35c-.296.37-.832.722-1.407.722-.537 0-.89-.212-1.185-.34-.278-.113-.593-.316-1.056-.316-.425 0-.842.287-1.093.546l-.323-.39c.296-.35.833-.712 1.416-.712.547 0 .88.212 1.185.332.28.12.583.315 1.046.315.427 0 .843-.295 1.074-.537l.344.38zm.038 1.825c-.296.38-.843.732-1.416.732-.528 0-.87-.213-1.177-.334-.278-.11-.593-.315-1.064-.315-.408 0-.833.278-1.083.547l-.315-.4c.287-.35.832-.703 1.407-.703.546 0 .88.204 1.185.334.278.11.593.315 1.047.315.434 0 .85-.277 1.082-.546l.334.37z"/>
    <path id="path224" d="M369.466 679.75c0 2.045-.758 3.176-2.092 3.176-1.177 0-1.972-1.102-1.99-3.094 0-2.018.87-3.13 2.092-3.13 1.268 0 1.99 1.13 1.99 3.047zm-3.268.092c0 1.563.482 2.453 1.222 2.453.833 0 1.23-.973 1.23-2.51 0-1.48-.38-2.453-1.22-2.453-.714 0-1.232.87-1.232 2.51z"/>
    <path id="path226" d="M370.82 682.925c-.314 0-.536-.25-.536-.584 0-.342.23-.583.555-.583.324 0 .546.24.546.584 0 .334-.213.585-.556.585h-.01z"/>
    <path id="path228" d="M373.904 677.564h-.02l-1.045.564-.158-.62 1.314-.704h.694v6.018h-.787v-5.258z"/>
    <path id="path230" d="M377.083 681.887c.232.148.768.38 1.332.38 1.047 0 1.37-.667 1.362-1.167-.01-.842-.77-1.204-1.556-1.204h-.452v-.61h.453c.594 0 1.343-.306 1.343-1.02 0-.482-.305-.906-1.055-.906-.482 0-.945.212-1.204.398l-.213-.593c.316-.23.927-.463 1.575-.463 1.185 0 1.722.704 1.722 1.435 0 .62-.37 1.148-1.11 1.417v.02c.74.146 1.34.703 1.34 1.545 0 .962-.75 1.805-2.193 1.805-.676 0-1.268-.213-1.564-.408l.223-.63z"/>
    <path id="path232" d="M385.232 677.49h-2.296l-.232 1.546c.14-.02.27-.037.49-.037.465 0 .927.1 1.297.323.474.27.863.787.863 1.547 0 1.176-.936 2.056-2.24 2.056-.66 0-1.215-.186-1.5-.37l.203-.62c.25.147.74.332 1.288.332.768 0 1.425-.5 1.425-1.305-.01-.78-.53-1.333-1.732-1.333-.343 0-.61.037-.833.064l.39-2.888h2.877v.684z"/>
    <path id="path234" d="M386.865 682.248c.176.02.38 0 .657-.026.473-.065.917-.26 1.26-.584.398-.36.684-.888.795-1.602h-.028c-.333.408-.815.65-1.416.65-1.084 0-1.778-.816-1.778-1.844 0-1.138.824-2.14 2.056-2.14 1.23 0 1.99 1 1.99 2.538 0 1.324-.444 2.25-1.037 2.824-.463.453-1.1.73-1.75.805-.296.045-.557.056-.75.045v-.667zm1.472-4.925c-.686 0-1.177.61-1.177 1.463 0 .75.453 1.277 1.157 1.277.547 0 .973-.27 1.185-.63.046-.074.074-.167.074-.295 0-1.028-.38-1.815-1.23-1.815h-.01z"/>
  </g>
  <g id="g236" fill="#606060">
    <path id="path238" d="M96.046 679.35c-.296.37-.832.722-1.407.722-.538 0-.89-.212-1.186-.34-.277-.113-.592-.316-1.056-.316-.425 0-.842.287-1.092.546l-.324-.39c.296-.35.833-.712 1.416-.712.547 0 .88.212 1.185.332.278.12.584.315 1.046.315.425 0 .842-.295 1.074-.537l.342.38zm.037 1.825c-.296.38-.843.732-1.416.732-.527 0-.87-.213-1.176-.334-.276-.11-.59-.315-1.063-.315-.408 0-.833.278-1.083.547l-.315-.4c.286-.35.832-.703 1.406-.703.547 0 .88.204 1.185.334.28.11.594.315 1.047.315.435 0 .85-.277 1.083-.546l.333.37z"/>
    <path id="path240" d="M102.67 679.75c0 2.045-.76 3.176-2.092 3.176-1.176 0-1.972-1.102-1.99-3.094 0-2.018.87-3.13 2.092-3.13 1.268 0 1.99 1.13 1.99 3.047zm-3.267.092c0 1.563.48 2.453 1.222 2.453.832 0 1.23-.973 1.23-2.51 0-1.48-.38-2.453-1.22-2.453-.714 0-1.232.87-1.232 2.51z"/>
    <path id="path242" d="M104.025 682.925c-.315 0-.537-.25-.537-.584 0-.342.232-.583.556-.583.324 0 .545.24.545.584 0 .334-.214.585-.556.585h-.01z"/>
    <path id="path244" d="M109.34 679.75c0 2.045-.76 3.176-2.093 3.176-1.176 0-1.972-1.102-1.99-3.094 0-2.018.87-3.13 2.092-3.13 1.268 0 1.99 1.13 1.99 3.047zm-3.268.092c0 1.563.48 2.453 1.222 2.453.832 0 1.23-.973 1.23-2.51 0-1.48-.38-2.453-1.22-2.453-.714 0-1.232.87-1.232 2.51z"/>
    <path id="path246" d="M110.092 682.823v-.5l.638-.62c1.538-1.463 2.232-2.24 2.24-3.148 0-.61-.295-1.177-1.194-1.177-.545 0-1 .278-1.277.51l-.26-.573c.416-.352 1.008-.612 1.702-.612 1.296 0 1.843.89 1.843 1.75 0 1.112-.805 2.01-2.074 3.23l-.48.445v.02h2.703v.675h-3.84z"/>
    <path id="path248" d="M116.613 677.564h-.02l-1.046.564-.157-.62 1.315-.704h.694v6.018h-.788v-5.258z"/>
    <path id="path250" d="M122.115 682.823v-1.64h-2.795v-.536l2.683-3.842h.88v3.74h.843v.64h-.843v1.638h-.768zm0-2.278v-2.01c0-.314.01-.628.028-.943h-.028c-.184.35-.332.61-.5.888l-1.472 2.046v.02h1.972z"/>
  </g>
  <g id="g252" fill="#606060">
    <path id="path254" d="M429.54 679.35c-.295.37-.83.722-1.406.722-.537 0-.89-.212-1.185-.34-.28-.113-.594-.316-1.057-.316-.425 0-.842.287-1.093.546l-.325-.39c.297-.35.834-.712 1.417-.712.546 0 .88.212 1.185.332.28.12.583.315 1.046.315.427 0 .843-.295 1.074-.537l.344.38zm.04 1.825c-.298.38-.844.732-1.418.732-.528 0-.87-.213-1.176-.334-.278-.11-.593-.315-1.064-.315-.408 0-.833.278-1.083.547l-.316-.4c.287-.35.832-.703 1.407-.703.547 0 .88.204 1.186.334.278.11.593.315 1.046.315.435 0 .852-.277 1.083-.546l.334.37z"/>
    <path id="path256" d="M436.165 679.75c0 2.045-.758 3.176-2.092 3.176-1.177 0-1.973-1.102-1.99-3.094 0-2.018.87-3.13 2.092-3.13 1.268 0 1.99 1.13 1.99 3.047zm-3.268.092c0 1.563.482 2.453 1.222 2.453.832 0 1.23-.973 1.23-2.51 0-1.48-.38-2.453-1.222-2.453-.713 0-1.23.87-1.23 2.51z"/>
    <path id="path258" d="M437.52 682.925c-.315 0-.538-.25-.538-.584 0-.342.232-.583.556-.583.324 0 .547.24.547.584 0 .334-.213.585-.556.585h-.01z"/>
    <path id="path260" d="M442.834 679.75c0 2.045-.758 3.176-2.092 3.176-1.177 0-1.973-1.102-1.99-3.094 0-2.018.87-3.13 2.092-3.13 1.268 0 1.99 1.13 1.99 3.047zm-3.268.092c0 1.563.482 2.453 1.222 2.453.833 0 1.23-.973 1.23-2.51 0-1.48-.38-2.453-1.22-2.453-.713 0-1.232.87-1.232 2.51z"/>
    <path id="path262" d="M443.587 682.823v-.5l.638-.62c1.538-1.463 2.23-2.24 2.24-3.148 0-.61-.295-1.177-1.193-1.177-.546 0-1 .278-1.278.51l-.26-.573c.418-.352 1.01-.612 1.704-.612 1.296 0 1.843.89 1.843 1.75 0 1.112-.804 2.01-2.072 3.23l-.482.445v.02h2.703v.675h-3.843z"/>
    <path id="path264" d="M450.107 677.564h-.018l-1.048.564-.158-.62 1.316-.704h.694v6.018h-.788v-5.258z"/>
    <path id="path266" d="M455.61 682.823v-1.64h-2.796v-.536l2.684-3.842h.88v3.74h.842v.64h-.842v1.638h-.768zm0-2.278v-2.01c0-.314.01-.628.028-.943h-.028c-.184.35-.333.61-.5.888l-1.472 2.046v.02h1.972z"/>
  </g>
  <g id="g268">
    <g id="g270" fill="#606060">
      <path id="path272" d="M29.348 679.35c-.297.37-.833.722-1.408.722-.537 0-.888-.212-1.184-.34-.278-.113-.593-.316-1.057-.316-.426 0-.843.287-1.093.546l-.324-.39c.296-.35.833-.712 1.416-.712.546 0 .88.212 1.184.332.278.12.584.315 1.046.315.426 0 .843-.295 1.075-.537l.343.38zm.037 1.825c-.297.38-.843.732-1.417.732-.527 0-.87-.213-1.175-.334-.278-.11-.593-.315-1.065-.315-.407 0-.833.278-1.083.547l-.315-.4c.287-.35.833-.703 1.407-.703.547 0 .88.204 1.185.334.278.11.593.315 1.046.315.436 0 .85-.277 1.083-.546l.335.37z"/>
      <path id="path274" d="M35.972 679.75c0 2.045-.76 3.176-2.093 3.176-1.177 0-1.973-1.102-1.99-3.094 0-2.018.868-3.13 2.09-3.13 1.27 0 1.992 1.13 1.992 3.047zm-3.268.092c0 1.563.48 2.453 1.222 2.453.832 0 1.23-.973 1.23-2.51 0-1.48-.38-2.453-1.22-2.453-.714 0-1.232.87-1.232 2.51z"/>
      <path id="path276" d="M37.326 682.925c-.315 0-.537-.25-.537-.584 0-.342.23-.583.555-.583.324 0 .546.24.546.584 0 .334-.213.585-.555.585h-.01z"/>
      <path id="path278" d="M42.64 679.75c0 2.045-.76 3.176-2.092 3.176-1.176 0-1.972-1.102-1.99-3.094 0-2.018.87-3.13 2.092-3.13 1.27 0 1.99 1.13 1.99 3.047zm-3.267.092c0 1.563.48 2.453 1.222 2.453.832 0 1.23-.973 1.23-2.51 0-1.48-.38-2.453-1.22-2.453-.713 0-1.232.87-1.232 2.51z"/>
      <path id="path280" d="M47.393 679.75c0 2.045-.758 3.176-2.092 3.176-1.176 0-1.972-1.102-1.99-3.094 0-2.018.87-3.13 2.092-3.13 1.27 0 1.99 1.13 1.99 3.047zm-3.268.092c0 1.563.482 2.453 1.222 2.453.833 0 1.23-.973 1.23-2.51 0-1.48-.378-2.453-1.22-2.453-.713 0-1.232.87-1.232 2.51z"/>
      <path id="path282" d="M49.914 677.564h-.02l-1.045.564-.16-.62 1.317-.704h.693v6.018h-.787v-5.258z"/>
      <path id="path284" d="M53.092 681.887c.232.148.77.38 1.333.38 1.047 0 1.37-.667 1.362-1.167-.01-.842-.77-1.204-1.556-1.204h-.452v-.61h.453c.594 0 1.343-.306 1.343-1.02 0-.482-.305-.906-1.055-.906-.483 0-.945.212-1.204.398l-.212-.593c.315-.23.925-.463 1.573-.463 1.185 0 1.722.704 1.722 1.435 0 .62-.37 1.148-1.11 1.417v.02c.74.146 1.34.703 1.34 1.545 0 .962-.75 1.805-2.193 1.805-.676 0-1.268-.213-1.564-.408l.222-.63z"/>
    </g>
  </g>
  <g id="g286" fill="#606060">
    <path id="path288" d="M496.24 679.35c-.296.37-.832.722-1.407.722-.537 0-.89-.212-1.185-.34-.278-.113-.593-.316-1.056-.316-.425 0-.842.287-1.093.546l-.326-.39c.297-.35.834-.712 1.417-.712.547 0 .88.212 1.186.332.278.12.583.315 1.045.315.43 0 .844-.295 1.076-.537l.344.38zm.038 1.825c-.297.38-.843.732-1.417.732-.527 0-.87-.213-1.175-.334-.278-.11-.593-.315-1.065-.315-.407 0-.832.278-1.083.547l-.314-.4c.287-.35.83-.703 1.407-.703.546 0 .88.204 1.185.334.277.11.592.315 1.046.315.436 0 .853-.277 1.084-.546l.334.37z"/>
    <path id="path290" d="M502.864 679.75c0 2.045-.758 3.176-2.092 3.176-1.177 0-1.973-1.102-1.99-3.094 0-2.018.87-3.13 2.09-3.13 1.27 0 1.992 1.13 1.992 3.047zm-3.268.092c0 1.563.482 2.453 1.222 2.453.833 0 1.23-.973 1.23-2.51 0-1.48-.38-2.453-1.22-2.453-.714 0-1.232.87-1.232 2.51z"/>
    <path id="path292" d="M504.22 682.925c-.316 0-.54-.25-.54-.584 0-.342.233-.583.557-.583.324 0 .547.24.547.584 0 .334-.213.585-.556.585h-.01z"/>
    <path id="path294" d="M509.533 679.75c0 2.045-.758 3.176-2.092 3.176-1.176 0-1.972-1.102-1.99-3.094 0-2.018.87-3.13 2.092-3.13 1.27 0 1.99 1.13 1.99 3.047zm-3.268.092c0 1.563.482 2.453 1.222 2.453.833 0 1.23-.973 1.23-2.51 0-1.48-.38-2.453-1.22-2.453-.713 0-1.232.87-1.232 2.51z"/>
    <path id="path296" d="M514.286 679.75c0 2.045-.76 3.176-2.093 3.176-1.177 0-1.972-1.102-1.99-3.094 0-2.018.87-3.13 2.092-3.13 1.27 0 1.99 1.13 1.99 3.047zm-3.27.092c0 1.563.483 2.453 1.223 2.453.832 0 1.23-.973 1.23-2.51 0-1.48-.38-2.453-1.222-2.453-.712 0-1.23.87-1.23 2.51z"/>
    <path id="path298" d="M516.806 677.564h-.018l-1.047.564-.157-.62 1.316-.704h.693v6.018h-.788v-5.258z"/>
    <path id="path300" d="M519.985 681.887c.23.148.768.38 1.333.38 1.046 0 1.37-.667 1.36-1.167-.01-.842-.767-1.204-1.555-1.204h-.453v-.61h.453c.593 0 1.342-.306 1.342-1.02 0-.482-.304-.906-1.055-.906-.482 0-.945.212-1.204.398l-.212-.593c.315-.23.925-.463 1.574-.463 1.185 0 1.72.704 1.72 1.435 0 .62-.37 1.148-1.11 1.417v.02c.74.146 1.343.703 1.343 1.545 0 .962-.75 1.805-2.194 1.805-.675 0-1.268-.213-1.564-.408l.223-.63z"/>
  </g>
  <g id="g302" fill="#606060">
    <path id="path304" d="M296.143 679.35c-.295.37-.832.722-1.407.722-.536 0-.89-.212-1.185-.34-.277-.113-.592-.316-1.055-.316-.425 0-.842.287-1.093.546l-.324-.39c.296-.35.833-.712 1.416-.712.547 0 .88.212 1.185.332.278.12.583.315 1.045.315.427 0 .843-.295 1.074-.537l.343.38zm.038 1.825c-.295.38-.842.732-1.415.732-.528 0-.87-.213-1.177-.334-.278-.11-.593-.315-1.064-.315-.408 0-.833.278-1.083.547l-.314-.4c.287-.35.832-.703 1.407-.703.547 0 .88.204 1.185.334.278.11.593.315 1.047.315.434 0 .85-.277 1.083-.546l.333.37z"/>
    <path id="path306" d="M302.768 679.75c0 2.045-.76 3.176-2.093 3.176-1.177 0-1.972-1.102-1.99-3.094 0-2.018.87-3.13 2.092-3.13 1.268 0 1.99 1.13 1.99 3.047zm-3.27.092c0 1.563.483 2.453 1.223 2.453.834 0 1.232-.973 1.232-2.51 0-1.48-.38-2.453-1.222-2.453-.713 0-1.23.87-1.23 2.51z"/>
    <path id="path308" d="M304.122 682.925c-.315 0-.537-.25-.537-.584 0-.342.23-.583.555-.583.325 0 .547.24.547.584 0 .334-.213.585-.556.585h-.008z"/>
    <path id="path310" d="M305.63 681.887c.233.148.77.38 1.334.38 1.046 0 1.37-.667 1.36-1.167-.008-.842-.767-1.204-1.554-1.204h-.453v-.61h.453c.592 0 1.343-.306 1.343-1.02 0-.482-.306-.906-1.057-.906-.482 0-.945.212-1.204.398l-.213-.593c.314-.23.926-.463 1.573-.463 1.185 0 1.722.704 1.722 1.435 0 .62-.37 1.148-1.11 1.417v.02c.74.146 1.342.703 1.342 1.545 0 .962-.75 1.805-2.195 1.805-.675 0-1.268-.213-1.563-.408l.22-.63z"/>
    <path id="path312" d="M312.708 682.823v-1.64h-2.796v-.536l2.683-3.842h.88v3.74h.843v.64h-.842v1.638h-.768zm0-2.278v-2.01c0-.314.01-.628.027-.943h-.027c-.185.35-.333.61-.5.888l-1.473 2.046v.02h1.973z"/>
    <path id="path314" d="M316.71 677.564h-.02l-1.046.564-.157-.62 1.315-.704h.694v6.018h-.787v-5.258z"/>
    <path id="path316" d="M319.888 681.887c.23.148.77.38 1.333.38 1.048 0 1.37-.667 1.363-1.167-.01-.842-.77-1.204-1.557-1.204h-.453v-.61h.453c.593 0 1.343-.306 1.343-1.02 0-.482-.306-.906-1.056-.906-.483 0-.945.212-1.205.398l-.213-.593c.315-.23.926-.463 1.574-.463 1.186 0 1.722.704 1.722 1.435 0 .62-.37 1.148-1.11 1.417v.02c.74.146 1.342.703 1.342 1.545 0 .962-.75 1.805-2.195 1.805-.676 0-1.27-.213-1.564-.408l.222-.63z"/>
  </g>
  <g id="g378">
    <path id="path380" d="M2.744 716.51v.723H0v-.722h2.744z"/>
    <path id="path382" d="M6.6 719.878v-1.967H3.245v-.643l3.223-4.61h1.055v4.488h1.01v.766h-1.01v1.968H6.6zm0-2.733v-2.41c0-.38.012-.756.034-1.135H6.6c-.222.422-.4.733-.6 1.066l-1.766 2.455v.023H6.6z"/>
    <path id="path384" d="M13.36 715.123c.633.433 1 1.222 1 2.032 0 1.978-1.356 2.844-2.578 2.844-1.456 0-2.578-1.057-2.578-2.757 0-1.8 1.144-2.866 2.766-2.866h1.624c.366 0 1.01.01 1.21 0l-.034.745c-.256 0-.62-.012-1.41-.046v.047zm-1.545 4.144c.877 0 1.578-.89 1.578-2.11 0-.912-.466-2.045-1.578-2.045-1.122 0-1.622 1.066-1.622 2.09 0 1.176.678 2.065 1.61 2.065h.012z"/>
  </g>
  <g id="g386">
    <path id="path388" d="M69.443 716.51v.723H66.7v-.722h2.743z"/>
    <path id="path390" d="M70.51 718.756c.28.177.924.455 1.6.455 1.256 0 1.645-.8 1.634-1.4-.01-1.01-.923-1.444-1.867-1.444h-.543v-.733h.543c.712 0 1.61-.367 1.61-1.222 0-.577-.366-1.088-1.265-1.088-.578 0-1.134.255-1.444.478l-.256-.712c.378-.278 1.11-.555 1.89-.555 1.42 0 2.066.843 2.066 1.722 0 .744-.445 1.377-1.333 1.7v.02c.888.18 1.61.846 1.61 1.856 0 1.157-.9 2.168-2.632 2.168-.81 0-1.522-.255-1.878-.488l.266-.754z"/>
    <path id="path392" d="M80.058 715.123c.634.433 1 1.222 1 2.032 0 1.978-1.356 2.844-2.577 2.844-1.455 0-2.578-1.057-2.578-2.757 0-1.8 1.144-2.866 2.767-2.866H80.29c.366 0 1.01.01 1.21 0l-.033.745c-.257 0-.623-.012-1.412-.046v.047zm-1.544 4.144c.877 0 1.577-.89 1.577-2.11 0-.912-.464-2.045-1.576-2.045-1.122 0-1.622 1.066-1.622 2.09 0 1.176.678 2.065 1.61 2.065h.012z"/>
  </g>
  <g id="g394">
    <path id="path396" d="M136.142 716.51v.723h-2.744v-.722h2.744z"/>
    <path id="path398" d="M136.976 719.878v-.6l.767-.744c1.845-1.756 2.68-2.69 2.69-3.778 0-.733-.357-1.41-1.434-1.41-.657 0-1.2.332-1.535.61l-.31-.688c.5-.422 1.21-.734 2.044-.734 1.554 0 2.21 1.067 2.21 2.1 0 1.334-.966 2.412-2.49 3.878l-.577.534v.02h3.244v.813h-4.61z"/>
    <path id="path400" d="M146.757 715.123c.634.433 1 1.222 1 2.032 0 1.978-1.356 2.844-2.578 2.844-1.456 0-2.58-1.057-2.58-2.757 0-1.8 1.145-2.866 2.767-2.866h1.624c.367 0 1.01.01 1.21 0l-.032.745c-.256 0-.622-.012-1.41-.046v.047zm-1.544 4.144c.877 0 1.577-.89 1.577-2.11 0-.912-.466-2.045-1.577-2.045-1.122 0-1.622 1.066-1.622 2.09 0 1.176.68 2.065 1.612 2.065h.01z"/>
  </g>
  <g id="g402">
    <path id="path404" d="M202.84 716.51v.723h-2.743v-.722h2.744z"/>
    <path id="path406" d="M205.798 713.567h-.023l-1.255.677-.19-.743 1.58-.844h.832v7.222h-.944v-6.31z"/>
    <path id="path408" d="M213.456 715.123c.634.433 1 1.222 1 2.032 0 1.978-1.356 2.844-2.578 2.844-1.455 0-2.578-1.057-2.578-2.757 0-1.8 1.144-2.866 2.766-2.866h1.624c.366 0 1.01.01 1.21 0l-.033.745c-.256 0-.622-.012-1.41-.046v.047zm-1.544 4.144c.877 0 1.577-.89 1.577-2.11 0-.912-.467-2.045-1.578-2.045-1.122 0-1.622 1.066-1.622 2.09 0 1.176.678 2.065 1.61 2.065h.012z"/>
  </g>
  <g id="g410">
    <path id="path412" d="M276.547 716.19c0 2.455-.91 3.81-2.512 3.81-1.41 0-2.367-1.322-2.388-3.71 0-2.423 1.044-3.757 2.51-3.757 1.523 0 2.39 1.356 2.39 3.657zm-3.923.11c0 1.878.578 2.945 1.467 2.945 1 0 1.48-1.167 1.48-3.01 0-1.778-.457-2.946-1.468-2.946-.856 0-1.478 1.044-1.478 3.01z"/>
  </g>
  <g id="g414">
    <path id="path416" d="M335.22 713.967v2.61h2.51v.667h-2.51v2.634h-.71v-2.634h-2.513v-.667h2.512v-2.61h.71z"/>
    <path id="path418" d="M340.802 713.567h-.022l-1.255.677-.19-.743 1.58-.844h.832v7.222h-.945v-6.31z"/>
    <path id="path420" d="M348.46 715.123c.633.433 1 1.222 1 2.032 0 1.978-1.357 2.844-2.58 2.844-1.454 0-2.576-1.057-2.576-2.757 0-1.8 1.144-2.866 2.766-2.866H348.693c.366 0 1.01.01 1.21 0l-.032.745c-.255 0-.622-.012-1.41-.046v.047zm-1.545 4.144c.877 0 1.577-.89 1.577-2.11 0-.912-.466-2.045-1.577-2.045-1.123 0-1.622 1.066-1.622 2.09 0 1.176.677 2.065 1.61 2.065h.012z"/>
  </g>
  <g id="g422">
    <path id="path424" d="M401.92 713.967v2.61h2.51v.667h-2.51v2.634h-.712v-2.634h-2.512v-.667h2.512v-2.61h.71z"/>
    <path id="path426" d="M405.38 719.878v-.6l.765-.744c1.845-1.756 2.678-2.69 2.69-3.778 0-.733-.357-1.41-1.434-1.41-.655 0-1.2.332-1.533.61l-.31-.688c.5-.422 1.21-.734 2.044-.734 1.556 0 2.212 1.067 2.212 2.1 0 1.334-.967 2.412-2.49 3.878l-.577.534v.02h3.244v.813h-4.61z"/>
    <path id="path428" d="M415.158 715.123c.634.433 1 1.222 1 2.032 0 1.978-1.356 2.844-2.578 2.844-1.455 0-2.577-1.057-2.577-2.757 0-1.8 1.144-2.866 2.766-2.866H415.39c.366 0 1.01.01 1.21 0l-.032.745c-.256 0-.623-.012-1.41-.046v.047zm-1.544 4.144c.877 0 1.577-.89 1.577-2.11 0-.912-.466-2.045-1.576-2.045-1.123 0-1.622 1.066-1.622 2.09 0 1.176.677 2.065 1.61 2.065h.012z"/>
  </g>
  <g id="g430">
    <path id="path432" d="M468.618 713.967v2.61h2.51v.667h-2.51v2.634h-.71v-2.634h-2.513v-.667h2.512v-2.61h.71z"/>
    <path id="path434" d="M472.312 718.756c.277.177.92.455 1.6.455 1.255 0 1.644-.8 1.633-1.4-.012-1.01-.922-1.444-1.867-1.444h-.545v-.733h.545c.71 0 1.61-.367 1.61-1.222 0-.577-.366-1.088-1.265-1.088-.58 0-1.134.255-1.446.478l-.254-.712c.377-.278 1.11-.555 1.89-.555 1.42 0 2.064.843 2.064 1.722 0 .744-.443 1.377-1.333 1.7v.02c.89.18 1.61.846 1.61 1.856 0 1.157-.9 2.168-2.632 2.168-.81 0-1.522-.255-1.877-.488l.267-.754z"/>
    <path id="path436" d="M481.857 715.123c.634.433 1 1.222 1 2.032 0 1.978-1.356 2.844-2.578 2.844-1.456 0-2.578-1.057-2.578-2.757 0-1.8 1.144-2.866 2.766-2.866H482.09c.367 0 1.01.01 1.21 0l-.03.745c-.257 0-.624-.012-1.412-.046v.047zm-1.544 4.144c.877 0 1.577-.89 1.577-2.11 0-.912-.467-2.045-1.577-2.045-1.123 0-1.622 1.066-1.622 2.09 0 1.176.678 2.065 1.61 2.065h.013z"/>
  </g>
  <g id="g438">
    <path id="path440" d="M535.317 713.967v2.61h2.51v.667h-2.51v2.634h-.71v-2.634h-2.513v-.667h2.512v-2.61h.71z"/>
    <path id="path442" d="M541.8 719.878v-1.967h-3.357v-.643l3.223-4.61h1.056v4.488h1.01v.766h-1.01v1.968h-.923zm0-2.733v-2.41c0-.38.01-.756.032-1.135h-.033c-.223.422-.4.733-.6 1.066l-1.767 2.455v.023h2.366z"/>
    <path id="path444" d="M548.556 715.123c.633.433 1 1.222 1 2.032 0 1.978-1.356 2.844-2.578 2.844-1.455 0-2.577-1.057-2.577-2.757 0-1.8 1.145-2.866 2.767-2.866H548.79c.366 0 1.01.01 1.21 0l-.032.745c-.256 0-.623-.012-1.41-.046v.047zm-1.544 4.144c.877 0 1.577-.89 1.577-2.11 0-.912-.468-2.045-1.578-2.045-1.123 0-1.623 1.066-1.623 2.09 0 1.176.677 2.065 1.61 2.065h.012z"/>
  </g>
  <g id="_x39_5_x25_" transform="matrix(.92637 0 0 .92637 -126.095 329.41)">
    <g id="g827">
      <g id="g829">
        <line x1="294.562" y1="294.938" x2="569.438" y2="294.938" id="line831" fill="none" stroke="#606060"/>
        <path d="M570.618 294.425c-.826-.25-1.364-.48-2.026-.745v2.52c.236-.11 1.2-.495 2.026-.745.885-.267 1.688-.45 2.208-.515-.52-.065-1.323-.248-2.208-.515z" id="path833" fill="#606060"/>
        <path d="M293.382 295.45c.826.25 1.364.48 2.027.745v-2.52c-.238.11-1.202.495-2.028.745-.885.267-1.688.45-2.208.515.52.065 1.323.248 2.208.515z" id="path835" fill="#606060"/>
      </g>
    </g>
    <line x1="290.88" y1="297.1" x2="290.88" y2="292.78" id="line837" fill="none" stroke="#606060"/>
    <line x1="573.12" y1="297.1" x2="573.12" y2="292.78" id="line839" fill="none" stroke="#606060"/>
    <g id="g841">
      <g id="g843" fill="#606060">
        <path d="M576.858 291.823h-.02l-1.13.61-.17-.67 1.42-.76h.75v6.496h-.85v-5.677z" id="path845"/>
        <path d="M580.73 297.61c-.34 0-.58-.27-.58-.63 0-.37.25-.63.6-.63s.59.26.59.63c0 .36-.23.63-.6.63h-.01z" id="path847"/>
        <path d="M582.658 296.88c.19.02.41 0 .71-.03.51-.07.99-.28 1.36-.63.43-.39.738-.958.858-1.728h-.03c-.36.44-.88.7-1.528.7-1.17 0-1.92-.88-1.92-1.99 0-1.228.89-2.308 2.22-2.308s2.148 1.08 2.148 2.738c0 1.43-.48 2.43-1.12 3.05-.5.488-1.188.788-1.89.868-.318.05-.6.06-.81.05v-.72zm1.59-5.317c-.74 0-1.27.66-1.27 1.58 0 .81.49 1.378 1.25 1.378.59 0 1.05-.29 1.278-.68.05-.08.08-.18.08-.318 0-1.11-.41-1.96-1.33-1.96h-.008z" id="path849"/>
        <path d="M588.48 294.082c-.72-.34-1.03-.9-1.03-1.46 0-1.03.87-1.728 2.01-1.728 1.258 0 1.888.79 1.888 1.6 0 .55-.27 1.14-1.07 1.52v.03c.81.318 1.31.89 1.31 1.678 0 1.13-.97 1.89-2.208 1.89-1.36 0-2.18-.81-2.18-1.76 0-.82.49-1.398 1.29-1.738l-.01-.032zm2.217 1.73c0-.79-.55-1.17-1.43-1.42-.76.22-1.17.72-1.17 1.34-.03.66.47 1.24 1.3 1.24.79 0 1.3-.5 1.3-1.16zm-2.42-3.25c0 .65.49 1 1.24 1.2.56-.19.99-.59.99-1.18 0-.52-.31-1.06-1.1-1.06-.73 0-1.13.48-1.13 1.04z" id="path851"/>
        <path d="M596.077 293.223c.57.39.9 1.1.9 1.83 0 1.777-1.22 2.558-2.32 2.558-1.31 0-2.318-.95-2.318-2.478 0-1.62 1.028-2.578 2.487-2.578h1.46c.33 0 .91.01 1.09 0l-.03.67c-.23 0-.56-.01-1.27-.04v.04zm-1.39 3.727c.79 0 1.42-.8 1.42-1.898 0-.82-.42-1.84-1.42-1.84-1.01 0-1.458.96-1.458 1.88 0 1.06.608 1.858 1.448 1.858h.01z" id="path853"/>
      </g>
    </g>
    <g id="g855">
      <g id="g857" fill="#606060">
        <path d="M265.484 294.222v.65h-2.47v-.65h2.47z" id="path859"/>
        <path d="M268.145 291.573h-.02l-1.13.61-.17-.67 1.42-.76h.75v6.496h-.85v-5.677z" id="path861"/>
        <path d="M272.016 297.36c-.34 0-.58-.27-.58-.63 0-.37.25-.63.6-.63s.59.26.59.63c0 .36-.23.63-.6.63h-.01z" id="path863"/>
        <path d="M273.945 296.63c.19.02.41 0 .71-.03.51-.07.988-.28 1.358-.63.43-.39.74-.958.86-1.728h-.03c-.36.44-.88.7-1.53.7-1.17 0-1.918-.88-1.918-1.99 0-1.228.89-2.308 2.22-2.308 1.328 0 2.147 1.08 2.147 2.738 0 1.43-.48 2.43-1.12 3.05-.5.488-1.188.788-1.89.868-.318.05-.6.06-.808.05v-.72zm1.59-5.317c-.74 0-1.27.66-1.27 1.58 0 .81.488 1.378 1.248 1.378.59 0 1.05-.29 1.28-.68.05-.08.08-.18.08-.318 0-1.11-.41-1.96-1.33-1.96h-.01z" id="path865"/>
        <path d="M279.765 293.832c-.72-.34-1.03-.9-1.03-1.46 0-1.03.87-1.728 2.01-1.728 1.26 0 1.89.79 1.89 1.6 0 .55-.27 1.14-1.07 1.52v.03c.81.318 1.31.89 1.31 1.678 0 1.13-.97 1.89-2.21 1.89-1.358 0-2.178-.81-2.178-1.76 0-.82.49-1.398 1.29-1.738l-.012-.032zm2.218 1.73c0-.79-.55-1.17-1.43-1.42-.76.22-1.17.72-1.17 1.34-.03.66.47 1.24 1.3 1.24.79 0 1.3-.5 1.3-1.16zm-2.42-3.25c0 .65.49 1 1.24 1.2.56-.19.99-.59.99-1.18 0-.52-.31-1.06-1.1-1.06-.73 0-1.13.48-1.13 1.04z" id="path867"/>
        <path d="M287.363 292.973c.57.39.9 1.1.9 1.83 0 1.777-1.22 2.558-2.32 2.558-1.31 0-2.318-.95-2.318-2.478 0-1.62 1.03-2.578 2.488-2.578h1.46c.33 0 .91.01 1.09 0l-.03.67c-.23 0-.56-.01-1.27-.04v.04zm-1.39 3.727c.79 0 1.42-.8 1.42-1.898 0-.82-.42-1.84-1.42-1.84-1.01 0-1.458.96-1.458 1.88 0 1.06.61 1.858 1.45 1.858h.01z" id="path869"/>
      </g>
    </g>
    <g id="g871">
      <g id="g873" fill="#606060">
        <path d="M396.796 304.997c.228.023.492 0 .852-.036.612-.083 1.188-.335 1.63-.755.517-.468.89-1.15 1.033-2.075h-.035c-.432.528-1.055.84-1.835.84-1.403 0-2.303-1.056-2.303-2.387 0-1.476 1.067-2.77 2.663-2.77 1.596 0 2.578 1.294 2.578 3.285 0 1.715-.575 2.915-1.343 3.658-.6.588-1.427.947-2.267 1.043-.384.06-.72.07-.972.06v-.863zm1.907-6.38c-.887 0-1.523.79-1.523 1.894 0 .973.588 1.656 1.5 1.656.707 0 1.258-.348 1.534-.815.06-.095.096-.215.096-.383 0-1.33-.492-2.35-1.595-2.35h-.012z" id="path875"/>
        <path d="M406.994 298.832h-2.975l-.302 2.003c.18-.024.348-.048.637-.048.6 0 1.2.132 1.68.42.61.348 1.114 1.02 1.114 2.003 0 1.522-1.213 2.662-2.903 2.662-.852 0-1.57-.24-1.942-.48l.264-.803c.322.19.958.43 1.665.43.996 0 1.848-.646 1.848-1.69-.012-1.007-.684-1.727-2.242-1.727-.443 0-.79.048-1.08.084l.505-3.742h3.73v.887z" id="path877"/>
        <path d="M410.21 297.812c1.08 0 1.8.84 1.8 2.327 0 1.642-.863 2.457-1.87 2.457-.972 0-1.812-.79-1.823-2.35 0-1.56.852-2.436 1.883-2.436h.01zm-.06.636c-.646 0-.995.78-.995 1.763-.024.984.35 1.752 1.008 1.752.695 0 1.007-.743 1.007-1.774 0-.947-.275-1.74-1.007-1.74h-.013zm-.084 7.436l4.582-8.083h.672l-4.594 8.084h-.66zm5.23-4.845c1.08 0 1.787.838 1.787 2.325 0 1.644-.863 2.46-1.858 2.46-.973 0-1.812-.78-1.824-2.34 0-1.57.853-2.446 1.885-2.446h.01zm-.06.635c-.648 0-1.008.78-1.008 1.763-.012.995.372 1.75 1.02 1.75.695 0 1.008-.742 1.008-1.774 0-.947-.276-1.738-1.008-1.738h-.012z" id="path879"/>
        <path d="M426.133 302.79c0 2.146-1.487 3.082-2.89 3.082-1.572 0-2.784-1.15-2.784-2.986 0-1.942 1.27-3.082 2.878-3.082 1.668 0 2.795 1.21 2.795 2.986zm-4.606.06c0 1.27.73 2.23 1.763 2.23 1.007 0 1.763-.947 1.763-2.254 0-.983-.49-2.23-1.738-2.23-1.25 0-1.788 1.15-1.788 2.254z" id="path881"/>
        <path d="M427.575 305.74v-5h-.815v-.805h.815v-.276c0-.816.18-1.56.672-2.027.396-.384.923-.54 1.415-.54.37 0 .695.084.9.168l-.145.816c-.156-.07-.372-.132-.672-.132-.9 0-1.127.792-1.127 1.68v.312h1.402v.804h-1.402v5h-1.043z" id="path883"/>
        <path d="M433.923 299.936l1.14 3.262c.19.528.348 1.008.468 1.487h.037c.13-.48.3-.96.49-1.487l1.13-3.262h1.103l-2.28 5.805h-1.007l-2.207-5.804h1.127z" id="path885"/>
        <path d="M443.316 304.35c0 .503.024.995.097 1.39h-.96l-.084-.73h-.036c-.324.456-.947.863-1.775.863-1.177 0-1.776-.827-1.776-1.667 0-1.403 1.248-2.17 3.49-2.16v-.118c0-.48-.132-1.344-1.32-1.344-.54 0-1.102.168-1.51.432l-.24-.695c.48-.31 1.176-.515 1.907-.515 1.775 0 2.207 1.21 2.207 2.374v2.17zm-1.018-1.572c-1.15-.024-2.46.18-2.46 1.307 0 .684.457 1.008.996 1.008.756 0 1.236-.48 1.404-.972.035-.106.06-.227.06-.335v-1.007z" id="path887"/>
        <path d="M445.023 297.225h1.055v8.516h-1.055v-8.515z" id="path889"/>
        <path d="M452.713 304.157c0 .6.012 1.127.047 1.583h-.936l-.06-.947h-.024c-.275.468-.887 1.08-1.918 1.08-.912 0-2.004-.505-2.004-2.544v-3.395h1.057v3.214c0 1.103.336 1.847 1.295 1.847.707 0 1.2-.492 1.39-.96.062-.156.097-.348.097-.54v-3.562h1.057v4.222z" id="path891"/>
        <path d="M455.055 303.03c.023 1.427.936 2.015 1.99 2.015.756 0 1.212-.132 1.607-.3l.18.755c-.37.168-1.007.372-1.93.372-1.788 0-2.855-1.188-2.855-2.938 0-1.75 1.03-3.13 2.723-3.13 1.895 0 2.398 1.667 2.398 2.734 0 .216-.023.384-.035.49h-4.078zm3.093-.756c.012-.672-.275-1.716-1.463-1.716-1.067 0-1.535.984-1.62 1.716h3.083z" id="path893"/>
        <path d="M460.335 304.66c.312.204.864.42 1.392.42.768 0 1.127-.383 1.127-.863 0-.504-.3-.78-1.08-1.067-1.043-.37-1.534-.947-1.534-1.643 0-.936.755-1.703 2.003-1.703.588 0 1.104.168 1.428.36l-.264.767c-.228-.143-.647-.335-1.187-.335-.626 0-.974.36-.974.792 0 .48.348.695 1.104.983 1.008.384 1.523.888 1.523 1.75 0 1.02-.79 1.752-2.17 1.752-.637 0-1.225-.168-1.632-.407l.265-.804z" id="path895"/>
      </g>
    </g>
  </g>
  <g id="_x39_9_x25_" transform="matrix(.92637 0 0 .92637 -126.095 329.41)">
    <g id="g898">
      <g id="g900">
        <line x1="249.84" y1="351.979" x2="614.16" y2="351.979" id="line902" fill="none" stroke="#606060"/>
        <path d="M615.34 351.467c-.825-.25-1.363-.48-2.025-.746v2.523c.236-.112 1.2-.496 2.026-.745.886-.268 1.69-.45 2.21-.516-.522-.065-1.324-.248-2.21-.515z" id="path904" fill="#606060"/>
        <path d="M248.66 352.492c.825.25 1.363.48 2.026.745v-2.52c-.237.11-1.2.495-2.027.744-.886.27-1.69.45-2.21.517.522.065 1.324.248 2.21.515z" id="path906" fill="#606060"/>
      </g>
    </g>
    <line x1="246.292" y1="349.761" x2="246.292" y2="354.081" id="line908" fill="none" stroke="#606060"/>
    <line x1="617.76" y1="349.82" x2="617.76" y2="354.141" id="line910" fill="none" stroke="#606060"/>
    <g id="g912">
      <g id="g914" fill="#606060">
        <path d="M220.567 351.64v.65h-2.47v-.65h2.47z" id="path916"/>
        <path d="M221.318 354.67v-.54l.69-.67c1.658-1.58 2.408-2.42 2.418-3.398 0-.66-.32-1.27-1.29-1.27-.59 0-1.08.3-1.38.55l-.28-.62c.45-.38 1.09-.66 1.84-.66 1.4 0 1.99.96 1.99 1.89 0 1.2-.87 2.17-2.24 3.488l-.52.48v.02h2.918v.73h-4.146z" id="path918"/>
        <path d="M227.098 354.78c-.34 0-.58-.272-.58-.63 0-.37.25-.63.6-.63s.59.26.59.63c0 .358-.23.63-.6.63h-.01z" id="path920"/>
        <path d="M232.396 348.912h-2.48l-.25 1.67c.15-.02.29-.04.53-.04.5 0 1 .11 1.4.35.51.29.93.85.93 1.67 0 1.268-1.01 2.218-2.418 2.218-.71 0-1.31-.2-1.62-.4l.22-.67c.27.16.8.36 1.39.36.83 0 1.54-.54 1.54-1.41-.01-.84-.57-1.438-1.87-1.438-.37 0-.66.04-.9.07l.42-3.118h3.108v.738z" id="path922"/>
        <path d="M234.847 351.25c-.72-.34-1.03-.898-1.03-1.458 0-1.03.87-1.73 2.01-1.73 1.26 0 1.89.79 1.89 1.6 0 .55-.27 1.14-1.07 1.52v.03c.81.32 1.31.89 1.31 1.68 0 1.13-.97 1.89-2.21 1.89-1.358 0-2.178-.81-2.178-1.76 0-.82.49-1.4 1.29-1.74l-.013-.03zm2.218 1.73c0-.79-.55-1.17-1.43-1.42-.758.22-1.168.72-1.168 1.34-.03.66.47 1.24 1.3 1.24.79 0 1.298-.5 1.298-1.16zm-2.418-3.25c0 .65.49 1 1.24 1.2.56-.19.99-.59.99-1.18 0-.52-.31-1.06-1.1-1.06-.73.002-1.13.482-1.13 1.04z" id="path924"/>
        <path d="M242.445 350.392c.57.39.9 1.1.9 1.83 0 1.777-1.22 2.558-2.32 2.558-1.31 0-2.318-.95-2.318-2.48 0-1.618 1.03-2.577 2.49-2.577H242.654c.33 0 .91.01 1.09 0l-.03.67c-.23 0-.56-.01-1.27-.04v.04zm-1.39 3.727c.79 0 1.42-.8 1.42-1.9 0-.82-.42-1.84-1.42-1.84-1.008 0-1.458.96-1.458 1.88 0 1.06.61 1.86 1.45 1.86h.01z" id="path926"/>
      </g>
    </g>
    <g id="g928">
      <g id="g930" fill="#606060">
        <path d="M621.783 355.002v-.54l.69-.67c1.66-1.578 2.408-2.418 2.42-3.397 0-.66-.32-1.27-1.29-1.27-.59 0-1.08.3-1.38.55l-.28-.62c.45-.38 1.09-.66 1.84-.66 1.398 0 1.988.96 1.988 1.89 0 1.2-.868 2.17-2.237 3.488l-.52.48v.02h2.918v.73h-4.147z" id="path932"/>
        <path d="M627.563 355.112c-.34 0-.58-.27-.58-.63 0-.37.25-.63.6-.63s.59.26.59.63c0 .36-.23.63-.6.63h-.01z" id="path934"/>
        <path d="M632.86 349.245h-2.478l-.25 1.67c.15-.02.29-.04.53-.04.5 0 1 .11 1.398.35.51.29.93.85.93 1.67 0 1.268-1.01 2.218-2.42 2.218-.708 0-1.308-.2-1.618-.4l.22-.67c.27.16.8.36 1.39.36.83 0 1.54-.54 1.54-1.41-.01-.84-.57-1.438-1.87-1.438-.37 0-.66.04-.898.07l.42-3.118h3.107v.738z" id="path936"/>
        <path d="M635.312 351.584c-.72-.34-1.03-.9-1.03-1.46 0-1.03.87-1.728 2.01-1.728 1.26 0 1.89.79 1.89 1.6 0 .55-.27 1.14-1.07 1.52v.03c.81.318 1.31.89 1.31 1.678 0 1.13-.97 1.89-2.208 1.89-1.36 0-2.18-.81-2.18-1.76 0-.82.49-1.398 1.29-1.738l-.012-.032zm2.22 1.728c0-.79-.55-1.17-1.43-1.42-.76.22-1.17.72-1.17 1.34-.03.66.47 1.24 1.3 1.24.79 0 1.3-.5 1.3-1.16zm-2.42-3.248c0 .65.49 1 1.24 1.2.56-.19.99-.59.99-1.18 0-.52-.312-1.06-1.1-1.06-.73 0-1.13.48-1.13 1.04z" id="path938"/>
        <path d="M642.91 350.725c.57.39.9 1.1.9 1.83 0 1.777-1.22 2.558-2.318 2.558-1.31 0-2.318-.95-2.318-2.48 0-1.618 1.03-2.577 2.488-2.577h1.46c.33 0 .91.01 1.09 0l-.03.67c-.23 0-.56-.01-1.27-.04v.04zm-1.39 3.727c.79 0 1.42-.8 1.42-1.898 0-.82-.42-1.84-1.42-1.84-1.008 0-1.458.96-1.458 1.88 0 1.06.61 1.858 1.45 1.858h.01z" id="path940"/>
      </g>
    </g>
    <g id="g942">
      <g id="g944" fill="#606060">
        <path d="M396.796 361.757c.228.023.492 0 .852-.036.612-.083 1.188-.335 1.63-.755.517-.468.89-1.15 1.033-2.075h-.035c-.432.528-1.055.84-1.835.84-1.403 0-2.303-1.056-2.303-2.387 0-1.476 1.067-2.77 2.663-2.77 1.596 0 2.578 1.294 2.578 3.285 0 1.715-.575 2.915-1.343 3.658-.6.588-1.427.947-2.267 1.043-.384.06-.72.07-.972.06v-.863zm1.907-6.38c-.887 0-1.523.79-1.523 1.894 0 .973.588 1.656 1.5 1.656.707 0 1.258-.348 1.534-.815.06-.095.096-.215.096-.383 0-1.33-.492-2.35-1.595-2.35h-.012z" id="path946"/>
        <path d="M402.95 361.757c.23.023.493 0 .853-.036.612-.083 1.188-.335 1.63-.755.518-.468.89-1.15 1.033-2.075h-.036c-.432.528-1.055.84-1.835.84-1.403 0-2.303-1.056-2.303-2.387 0-1.476 1.067-2.77 2.663-2.77 1.595 0 2.578 1.294 2.578 3.285 0 1.715-.576 2.915-1.344 3.658-.6.588-1.428.947-2.267 1.043-.385.06-.72.07-.973.06v-.863zm1.908-6.38c-.888 0-1.522.79-1.522 1.894 0 .973.588 1.656 1.498 1.656.708 0 1.26-.348 1.535-.815.06-.095.096-.215.096-.383 0-1.33-.49-2.35-1.595-2.35h-.012z" id="path948"/>
        <path d="M410.21 354.572c1.08 0 1.8.84 1.8 2.327 0 1.642-.863 2.457-1.87 2.457-.972 0-1.812-.79-1.823-2.35 0-1.56.852-2.436 1.883-2.436h.01zm-.06.636c-.646 0-.995.78-.995 1.763-.024.984.35 1.752 1.008 1.752.695 0 1.007-.743 1.007-1.774 0-.947-.275-1.74-1.007-1.74h-.013zm-.084 7.436l4.582-8.083h.672l-4.594 8.084h-.66zm5.23-4.845c1.08 0 1.787.838 1.787 2.325 0 1.644-.863 2.46-1.858 2.46-.973 0-1.812-.78-1.824-2.34 0-1.57.853-2.446 1.885-2.446h.01zm-.06.635c-.648 0-1.008.78-1.008 1.763-.012.995.372 1.75 1.02 1.75.695 0 1.008-.742 1.008-1.774 0-.947-.276-1.738-1.008-1.738h-.012z" id="path950"/>
        <path d="M426.133 359.55c0 2.146-1.487 3.082-2.89 3.082-1.572 0-2.784-1.15-2.784-2.986 0-1.942 1.27-3.082 2.878-3.082 1.668 0 2.795 1.21 2.795 2.986zm-4.606.06c0 1.27.73 2.23 1.763 2.23 1.007 0 1.763-.948 1.763-2.255 0-.983-.49-2.23-1.738-2.23-1.25 0-1.788 1.15-1.788 2.254z" id="path952"/>
        <path d="M427.575 362.5v-5h-.815v-.805h.815v-.276c0-.816.18-1.56.672-2.027.396-.384.923-.54 1.415-.54.37 0 .695.084.9.168l-.145.816c-.156-.07-.372-.132-.672-.132-.9 0-1.127.792-1.127 1.68v.312h1.402v.804h-1.402v5h-1.043z" id="path954"/>
        <path d="M433.923 356.695l1.14 3.262c.19.528.348 1.008.468 1.487h.037c.13-.48.3-.96.49-1.487l1.13-3.262h1.103l-2.28 5.805h-1.007l-2.207-5.805h1.127z" id="path956"/>
        <path d="M443.316 361.108c0 .504.024.996.097 1.392h-.96l-.084-.73h-.036c-.324.455-.947.862-1.775.862-1.177 0-1.776-.827-1.776-1.667 0-1.403 1.248-2.17 3.49-2.16v-.118c0-.48-.132-1.344-1.32-1.344-.54 0-1.102.168-1.51.432l-.24-.695c.48-.312 1.176-.516 1.907-.516 1.775 0 2.207 1.21 2.207 2.374v2.17zm-1.018-1.57c-1.15-.024-2.46.18-2.46 1.307 0 .684.457 1.008.996 1.008.756 0 1.236-.48 1.404-.972.035-.106.06-.227.06-.335v-1.007z" id="path958"/>
        <path d="M445.023 353.984h1.055v8.516h-1.055v-8.516z" id="path960"/>
        <path d="M452.713 360.917c0 .6.012 1.127.047 1.583h-.936l-.06-.947h-.024c-.275.468-.887 1.08-1.918 1.08-.912 0-2.004-.505-2.004-2.544v-3.395h1.057v3.214c0 1.103.336 1.847 1.295 1.847.707 0 1.2-.492 1.39-.96.062-.156.097-.348.097-.54v-3.562h1.057v4.222z" id="path962"/>
        <path d="M455.055 359.79c.023 1.427.936 2.015 1.99 2.015.756 0 1.212-.132 1.607-.3l.18.755c-.37.168-1.007.372-1.93.372-1.788 0-2.855-1.188-2.855-2.938 0-1.75 1.03-3.13 2.723-3.13 1.895 0 2.398 1.667 2.398 2.734 0 .216-.023.384-.035.49h-4.078zm3.093-.756c.012-.672-.275-1.716-1.463-1.716-1.067 0-1.535.984-1.62 1.716h3.083z" id="path964"/>
        <path d="M460.335 361.42c.312.204.864.42 1.392.42.768 0 1.127-.383 1.127-.863 0-.504-.3-.78-1.08-1.067-1.043-.37-1.534-.947-1.534-1.643 0-.936.755-1.703 2.003-1.703.588 0 1.104.168 1.428.36l-.264.767c-.228-.143-.647-.335-1.187-.335-.626 0-.974.36-.974.792 0 .48.348.695 1.104.983 1.008.384 1.523.888 1.523 1.75 0 1.02-.79 1.752-2.17 1.752-.637 0-1.225-.168-1.632-.407l.265-.804z" id="path966"/>
      </g>
    </g>
  </g>
  <rect id="gd0" width="33.5" height="687.662" x="6.701" y="16.338" fill="#42a5f5" fill-opacity=".498" stroke-width="2.338"/>
  <rect id="gd1" y="16.338" x="40.196" height="687.662" width="33.5" fill="#42a5f5" fill-opacity=".498" stroke-width="2.338"/>
  <rect id="gd2" width="33.5" height="687.662" x="73.693" y="16.338" fill="#42a5f5" fill-opacity=".498" stroke-width="2.338"/>
  <rect id="gd3" y="16.338" x="107.189" height="687.662" width="33.5" fill="#42a5f5" fill-opacity=".498" stroke-width="2.338"/>
  <rect id="gd4" width="33.5" height="687.662" x="140.663" y="16.338" fill="#42a5f5" fill-opacity=".498" stroke-width="2.338"/>
  <rect id="gd5" y="16.338" x="174.13" height="687.662" width="33.5" fill="#42a5f5" fill-opacity=".498" stroke-width="2.338"/>
  <rect id="gd6" width="33.5" height="687.662" x="207.621" y="16.338" fill="#42a5f5" fill-opacity=".498" stroke-width="2.338"/>
  <rect id="gd7" y="16.338" x="241.127" height="687.662" width="33.5" fill="#42a5f5" fill-opacity=".498" stroke-width="2.338"/>
  <rect id="gd8" y="16.338" x="274.455" height="687.662" width="33.5" fill="#42a5f5" fill-opacity=".498" stroke-width="2.338"/>
  <rect id="gd9" width="33.5" height="687.662" x="307.95" y="16.338" fill="#42a5f5" fill-opacity=".498" stroke-width="2.338"/>
  <rect id="gd10" y="16.338" x="341.448" height="687.662" width="33.5" fill="#42a5f5" fill-opacity=".498" stroke-width="2.338"/>
  <rect id="gd11" width="33.5" height="687.662" x="374.944" y="16.338" fill="#42a5f5" fill-opacity=".498" stroke-width="2.338"/>
  <rect id="gd12" y="16.338" x="408.418" height="687.662" width="33.5" fill="#42a5f5" fill-opacity=".498" stroke-width="2.338"/>
  <rect id="gd13" width="33.5" height="687.662" x="441.884" y="16.338" fill="#42a5f5" fill-opacity=".498" stroke-width="2.338"/>
  <rect id="gd14" y="16.338" x="475.376" height="687.662" width="33.5" fill="#42a5f5" fill-opacity=".498" stroke-width="2.338"/>
  <rect id="gd15" width="33.5" height="687.662" x="508.881" y="16.338" fill="#42a5f5" fill-opacity=".498" stroke-width="2.338"/>
</svg>
