<svg id="SvgjsSvg1006"
     height="100%"
     width="100%"
     style="max-height: 555px;"
     xmlns="http://www.w3.org/2000/svg" version="1.1"
     xmlns:xlink="http://www.w3.org/1999/xlink" xmlns:svgjs="http://svgjs.com/svgjs"
     class="wheel">
    <defs id="SvgjsDefs1007">
        <style type="text/css">
            @import url('https://fonts.googleapis.com/css?family=Open+Sans');
            .wheel > text {
                font-size: 20px;
                font-family: "Open Sans";
                font-weight: 800;
            }
        </style>
    </defs>
    <text id="SvgjsText1008" x="277" y="27" fill="#00802b" text-anchor="middle" transform="matrix(1,0,0,1,0,0)">
        <tspan id="SvgjsTspan1009" dy="20" x="277">0</tspan>
    </text>
    <text id="SvgjsText1010" x="317.56019687724375" y="30.452181516549956" fill="#ff2a00"
          text-anchor="middle"
          transform="matrix(0.9856159103477085,0.16900082032184902,-0.16900082032184902,0.9856159103477085,11.826230579682203,-53.07315157546091)">
        <tspan id="SvgjsTspan1011" dy="20" x="317.56019687724375">32</tspan>
    </text>
    <text id="SvgjsText1012" x="356.9535507380938" y="40.70941308933979" fill="#444444"
          text-anchor="middle"
          transform="matrix(0.9428774454610842,0.33313979474205746,-0.33313979474205746,0.9428774454610842,38.12173908205966,-115.92043751457192)">
        <tspan id="SvgjsTspan1013" dy="20" x="356.9535507380938">15</tspan>
    </text>
    <text id="SvgjsText1014" x="394.0467865152723" y="57.47661284131485" fill="#ff2a00"
          text-anchor="middle"
          transform="matrix(0.8730141131611882,0.48769494381363454,-0.48769494381363454,0.8730141131611882,84.17866279099343,-183.3543967780354)">
        <tspan id="SvgjsTspan1015" dy="20" x="394.0467865152723">19</tspan>
    </text>
    <text id="SvgjsText1016" x="427.7727993509542" y="80.27141896357452" fill="#444444"
          text-anchor="middle"
          transform="matrix(0.7780357543184395,0.6282199972956423,-0.6282199972956423,0.7780357543184395,153.25710869030377,-248.2286112394849)">
        <tspan id="SvgjsTspan1017" dy="20" x="427.7727993509542">4</tspan>
    </text>
    <text id="SvgjsText1018" x="457.16135326065387" y="108.43806638638046" fill="#ff2a00"
          text-anchor="middle"
          transform="matrix(0.6606747233900815,0.7506723052527243,-0.7506723052527243,0.6606747233900815,245.9064519229809,-302.13152078079395)">
        <tspan id="SvgjsTspan1019" dy="20" x="457.16135326065387">21</tspan>
    </text>
    <text id="SvgjsText1020" x="481.3669930559947" y="141.1662519462644" fill="#444444"
          text-anchor="middle"
          transform="matrix(0.5243072835572319,0.8515291377333112,-0.8515291377333112,0.5243072835572319,359.8888170370269,-336.91812085768026)">
        <tspan id="SvgjsTspan1021" dy="20" x="481.3669930559947">2</tspan>
    </text>
    <text id="SvgjsText1022" x="499.6933665511623" y="177.51444533272596" fill="#ff2a00"
          text-anchor="middle"
          transform="matrix(0.3728564777803086,0.9278890272965093,-0.9278890272965093,0.3728564777803086,489.762886003301,-344.6277634999467)">
        <tspan id="SvgjsTspan1023" dy="20" x="499.6933665511623">25</tspan>
    </text>
    <text id="SvgjsText1024" x="511.6132573474447" y="216.4369752010257" fill="#444444"
          text-anchor="middle"
          transform="matrix(0.21067926999572642,0.9775552389476861,-0.9775552389476861,0.21067926999572642,627.7124952274612,-319.5634748922271)">
        <tspan id="SvgjsTspan1025" dy="20" x="511.6132573474447">17</tspan>
    </text>
    <text id="SvgjsText1026" x="516.7837518891236" y="256.8141112329244" fill="#ff2a00"
          text-anchor="middle"
          transform="matrix(0.04244120319614846,0.9990989662046814,-0.9990989662046814,0.04244120319614846,764.0454480744892,-258.56575199617475)">
        <tspan id="SvgjsTspan1027" dy="20" x="516.7837518891236">34</tspan>
    </text>
    <text id="SvgjsText1028" x="515.0561044621304" y="297.48427673925084" fill="#444444"
          text-anchor="middle"
          transform="matrix(-0.12701781974687854,0.991900435258877,-0.991900435258877,-0.12701781974687854,888.083631052495,-161.6744006752674)">
        <tspan id="SvgjsTspan1029" dy="20" x="515.0561044621304">6</tspan>
    </text>
    <text id="SvgjsText1030" x="506.48001633742024" y="337.2774651063721" fill="#ff2a00"
          text-anchor="middle"
          transform="matrix(-0.2928227712765503,0.956166734739251,-0.956166734739251,-0.2928227712765503,989.4004919003651,-32.22553732488319)">
        <tspan id="SvgjsTspan1031" dy="20" x="506.48001633742024">27</tspan>
    </text>
    <text id="SvgjsText1032" x="491.3022059558964" y="375.0488987562416" fill="#444444"
          text-anchor="middle"
          transform="matrix(-0.450203744817673,0.8929258581495687,-0.8929258581495687,-0.450203744817673,1058.7237990596375,123.21165398627471)">
        <tspan id="SvgjsTspan1033" dy="20" x="491.3022059558964">13</tspan>
    </text>
    <text id="SvgjsText1034" x="469.9593112880657" y="409.7119623130288" fill="#ff2a00"
          text-anchor="middle"
          transform="matrix(-0.5946331763042867,0.8039971303669405,-0.8039971303669405,-0.5946331763042867,1089.077190655248,295.3050842609118)">
        <tspan id="SvgjsTspan1035" dy="20" x="469.9593112880657">36</tspan>
    </text>
    <text id="SvgjsText1036" x="443.065328554611" y="440.2694625490859" fill="#444444"
          text-anchor="middle"
          transform="matrix(-0.7219560939545244,0.6919388689775462,-0.6919388689775462,-0.7219560939545244,1076.2068535701542,473.0757677379288)">
        <tspan id="SvgjsTspan1037" dy="20" x="443.065328554611">11</tspan>
    </text>
    <text id="SvgjsText1038" x="411.3939486730229" y="465.84231581852214" fill="#ff2a00"
          text-anchor="middle"
          transform="matrix(-0.8285096492438421,0.5599747861375954,-0.5599747861375954,-0.8285096492438421,1020.3262658592171,644.184843162544)">
        <tspan id="SvgjsTspan1039" dy="20" x="411.3939486730229">30</tspan>
    </text>
    <text id="SvgjsText1040" x="375.8562995785582" y="485.6948376931526" fill="#444444"
          text-anchor="middle"
          transform="matrix(-0.9112284903881356,0.4119012482439928,-0.4119012482439928,-0.9112284903881356,923.7961025503308,797.2817101725018)">
        <tspan id="SvgjsTspan1041" dy="20" x="375.8562995785582">8</tspan>
    </text>
    <text id="SvgjsText1042" x="337.47473473242997" y="499.2559072640397" fill="#ff2a00"
          text-anchor="middle"
          transform="matrix(-0.9677329469334988,0.2519780613851254,-0.2519780613851254,-0.9677329469334988,793.2748632949647,921.9171797752742)">
        <tspan id="SvgjsTspan1043" dy="20" x="337.47473473242997">23</tspan>
    </text>
    <text id="SvgjsText1044" x="297.3534218741222" y="506.1353972502063" fill="#444444"
          text-anchor="middle"
          transform="matrix(-0.9963974885425265,0.0848059244755095,-0.0848059244755095,-0.9963974885425265,637.8795317117542,1010.1532100564737)">
        <tspan id="SvgjsTspan1045" dy="20" x="297.3534218741222">10</tspan>
    </text>
    <text id="SvgjsText1046" x="256.64657812587774" y="506.1353972502063" fill="#ff2a00"
          text-anchor="middle"
          transform="matrix(-0.9963974885425265,-0.08480592447550882,0.08480592447550882,-0.9963974885425265,468.6549700236999,1057.1582187895947)">
        <tspan id="SvgjsTspan1047" dy="20" x="256.64657812587774">5</tspan>
    </text>
    <text id="SvgjsText1048" x="216.52526526756998" y="499.2559072640397" fill="#444444"
          text-anchor="middle"
          transform="matrix(-0.967732946933499,-0.25197806138512474,0.25197806138512474,-0.967732946933499,297.3718683702233,1061.579957455189)">
        <tspan id="SvgjsTspan1049" dy="20" x="216.52526526756998">24</tspan>
    </text>
    <text id="SvgjsText1050" x="178.14370042144176" y="485.6948376931526" fill="#ff2a00"
          text-anchor="middle"
          transform="matrix(-0.9112284903881359,-0.4119012482439922,0.4119012482439922,-0.9112284903881359,135.51721971987482,1025.5811949902368)">
        <tspan id="SvgjsTspan1051" dy="20" x="178.14370042144176">16</tspan>
    </text>
    <text id="SvgjsText1052" x="142.6060513269771" y="465.84231581852214" fill="#444444"
          text-anchor="middle"
          transform="matrix(-0.8285096492438422,-0.5599747861375953,0.5599747861375953,-0.8285096492438422,-6.846222302548256,954.5596179853397)">
        <tspan id="SvgjsTspan1053" dy="20" x="142.6060513269771">33</tspan>
    </text>
    <text id="SvgjsText1054" x="110.93467144538894" y="440.2694625490859" fill="#ff2a00"
          text-anchor="middle"
          transform="matrix(-0.7219560939545246,-0.6919388689775461,0.6919388689775461,-0.7219560939545246,-122.28353586529971,856.3936838342478)">
        <tspan id="SvgjsTspan1055" dy="20" x="110.93467144538894">1</tspan>
    </text>
    <text id="SvgjsText1056" x="84.04068871193431" y="409.71196231302883" fill="#444444"
          text-anchor="middle"
          transform="matrix(-0.5946331763042871,-0.8039971303669401,0.8039971303669401,-0.5946331763042871,-205.2268365452171,740.9330562219508)">
        <tspan id="SvgjsTspan1057" dy="20" x="84.04068871193431">20</tspan>
    </text>
    <text id="SvgjsText1058" x="62.697794044103546" y="375.04889875624156" fill="#ff2a00"
          text-anchor="middle"
          transform="matrix(-0.4502037448176736,-0.8929258581495684,0.8929258581495684,-0.4502037448176736,-254.92571406092918,618.129762832207)">
        <tspan id="SvgjsTspan1059" dy="20" x="62.697794044103546">14</tspan>
    </text>
    <text id="SvgjsText1060" x="47.51998366257979" y="337.2774651063722" fill="#444444"
          text-anchor="middle"
          transform="matrix(-0.2928227712765503,-0.956166734739251,0.956166734739251,-0.2928227712765503,-273.0150737667466,497.61035456250426)">
        <tspan id="SvgjsTspan1061" dy="20" x="47.51998366257979">31</tspan>
    </text>
    <text id="SvgjsText1062" x="38.94389553786954" y="297.4842767392509" fill="#ff2a00"
          text-anchor="middle"
          transform="matrix(-0.12701781974687834,-0.991900435258877,0.991900435258877,-0.12701781974687834,-263.416394804354,388.101914011266)">
        <tspan id="SvgjsTspan1063" dy="20" x="38.94389553786954">9</tspan>
    </text>
    <text id="SvgjsText1064" x="37.21624811087645" y="256.8141112329243" fill="#444444"
          text-anchor="middle"
          transform="matrix(0.04244120319614822,-0.9990989662046815,0.9990989662046815,0.04244120319614822,-233.30352308975444,295.2004609441169)">
        <tspan id="SvgjsTspan1065" dy="20" x="37.21624811087645">22</tspan>
    </text>
    <text id="SvgjsText1066" x="42.38674265255531" y="216.4369752010256" fill="#ff2a00"
          text-anchor="middle"
          transform="matrix(0.21067926999572661,-0.9775552389476861,0.9775552389476861,0.21067926999572661,-190.21914748618624,222.26179059513652)">
        <tspan id="SvgjsTspan1067" dy="20" x="42.38674265255531">18</tspan>
    </text>
    <text id="SvgjsText1068" x="54.306633448837744" y="177.51444533272598" fill="#444444"
          text-anchor="middle"
          transform="matrix(0.3728564777803084,-0.9278890272965095,0.9278890272965095,0.3728564777803084,-142.15878969550232,169.66922814519512)">
        <tspan id="SvgjsTspan1069" dy="20" x="54.306633448837744">29</tspan>
    </text>
    <text id="SvgjsText1070" x="72.63300694400527" y="141.16625194626445" fill="#ff2a00"
          text-anchor="middle"
          transform="matrix(0.5243072835572318,-0.8515291377333112,0.8515291377333112,0.5243072835572318,-96.22869624992828,135.05520887378458)">
        <tspan id="SvgjsTspan1071" dy="20" x="72.63300694400527">7</tspan>
    </text>
    <text id="SvgjsText1072" x="96.83864673934616" y="108.43806638638043" fill="#444444"
          text-anchor="middle"
          transform="matrix(0.6606747233900812,-0.7506723052527247,0.7506723052527247,0.6606747233900812,-57.87783302150979,113.83477036737199)">
        <tspan id="SvgjsTspan1073" dy="20" x="96.83864673934616">28</tspan>
    </text>
    <text id="SvgjsText1074" x="126.22720064904587" y="80.27141896357452" fill="#ff2a00"
          text-anchor="middle"
          transform="matrix(0.7780357543184395,-0.6282199972956423,0.6282199972956423,0.7780357543184395,-30.229957329960143,99.97213819908256)">
        <tspan id="SvgjsTspan1075" dy="20" x="126.22720064904587">12</tspan>
    </text>
    <text id="SvgjsText1076" x="159.9532134847278" y="57.47661284131479" fill="#444444"
          text-anchor="middle"
          transform="matrix(0.8730141131611879,-0.487694943813635,0.487694943813635,0.8730141131611879,-13.794750856100137,86.95814606416872)">
        <tspan id="SvgjsTspan1077" dy="20" x="159.9532134847278">35</tspan>
    </text>
    <text id="SvgjsText1078" x="197.04644926190616" y="40.70941308933979" fill="#ff2a00"
          text-anchor="middle"
          transform="matrix(0.9428774454610841,-0.3331397947420577,0.3331397947420577,0.9428774454610841,-6.461116958908235,68.72489637585991)">
        <tspan id="SvgjsTspan1079" dy="20" x="197.04644926190616">3</tspan>
    </text>
    <text id="SvgjsText1080" x="236.43980312275608" y="30.452181516549985" fill="#444444"
          text-anchor="middle"
          transform="matrix(0.9856159103477083,-0.16900082032184968,0.16900082032184968,0.9856159103477083,-3.853624138498759,40.5981937257416)">
        <tspan id="SvgjsTspan1081" dy="20" x="236.43980312275608">26</tspan>
    </text>
    <circle id="SvgjsCircle1082" r="220" cx="277" cy="277" fill="none" stroke="#0f72c2" stroke-width="1"
            opacity="0.2"></circle>
    <circle id="SvgjsCircle1083" r="50" cx="277" cy="277" fill="none" stroke="#0f72c2" stroke-width="1"
            opacity="0.2"></circle>
    <path id="SvgjsPath1084" d="M277 227L277 57 " stroke="#0f72c2" stroke-width="1" opacity="0.2"></path>
    <path id="SvgjsPath1085" d="M285.4500410160924 227.71920448261457L314.1801804708068 60.16449972350415 "
          stroke="#0f72c2" stroke-width="1" opacity="0.2"></path>
    <path id="SvgjsPath1086" d="M293.6569897371029 229.85612772694577L350.29075484325267 69.56696199856148 "
          stroke="#0f72c2" stroke-width="1" opacity="0.2"></path>
    <path id="SvgjsPath1087" d="M301.3847471906817 233.3492943419406L384.2928876389996 84.93689510453859 "
          stroke="#0f72c2" stroke-width="1" opacity="0.2"></path>
    <path id="SvgjsPath1088" d="M308.4109998647821 238.09821228407802L415.2083994050413 105.8321340499433 "
          stroke="#0f72c2" stroke-width="1" opacity="0.2"></path>
    <path id="SvgjsPath1089" d="M314.5336152626362 243.96626383049593L442.14790715559934 131.65156085418207 "
          stroke="#0f72c2" stroke-width="1" opacity="0.2"></path>
    <path id="SvgjsPath1090" d="M319.5764568866656 250.78463582213843L464.33641030132844 161.65239761740904 "
          stroke="#0f72c2" stroke-width="1" opacity="0.2"></path>
    <path id="SvgjsPath1091" d="M323.39445136482544 258.3571761109846L481.1355860052321 194.97157488833213 "
          stroke="#0f72c2" stroke-width="1" opacity="0.2"></path>
    <path id="SvgjsPath1092" d="M325.87776194738433 266.4660365002137L492.062152568491 230.65056060094022 "
          stroke="#0f72c2" stroke-width="1" opacity="0.2"></path>
    <path id="SvgjsPath1093" d="M326.95494831023404 274.8779398401926L496.8017725650299 267.66293529684737 "
          stroke="#0f72c2" stroke-width="1" opacity="0.2"></path>
    <path id="SvgjsPath1094" d="M326.5950217629438 283.3508909873439L495.21809575695295 304.9439203443133 "
          stroke="#0f72c2" stroke-width="1" opacity="0.2"></path>
    <path id="SvgjsPath1095" d="M324.80833673696253 291.6411385638275L487.3566816426352 341.4210096808411 "
          stroke="#0f72c2" stroke-width="1" opacity="0.2"></path>
    <path id="SvgjsPath1096" d="M321.6462929074784 299.5101872408837L473.44368879290505 376.04482385988814 "
          stroke="#0f72c2" stroke-width="1" opacity="0.2"></path>
    <path id="SvgjsPath1097" d="M317.199856518347 306.7316588152143L453.8793686807269 407.819298786943 "
          stroke="#0f72c2" stroke-width="1" opacity="0.2"></path>
    <path id="SvgjsPath1098" d="M311.5969434488773 313.09780469772625L429.22655117506014 435.8303406699954 "
          stroke="#0f72c2" stroke-width="1" opacity="0.2"></path>
    <path id="SvgjsPath1099" d="M304.99873930687977 318.4254824621921L400.194452950271 459.27212283364526 "
          stroke="#0f72c2" stroke-width="1" opacity="0.2"></path>
    <path id="SvgjsPath1100" d="M297.59506241219964 322.5614245194068L367.61827461367835 477.47026788538983 "
          stroke="#0f72c2" stroke-width="1" opacity="0.2"></path>
    <path id="SvgjsPath1101" d="M289.59890306925627 325.3866473466749L332.4351735047275 489.90124832536975 "
          stroke="#0f72c2" stroke-width="1" opacity="0.2"></path>
    <path id="SvgjsPath1102" d="M281.2402962237755 326.8198744271263L295.657303384612 496.20744747935584 "
          stroke="#0f72c2" stroke-width="1" opacity="0.2"></path>
    <path id="SvgjsPath1103" d="M272.7597037762245 326.8198744271263L258.3426966153879 496.20744747935584 "
          stroke="#0f72c2" stroke-width="1" opacity="0.2"></path>
    <path id="SvgjsPath1104" d="M264.40109693074373 325.3866473466749L221.56482649527248 489.90124832536975 "
          stroke="#0f72c2" stroke-width="1" opacity="0.2"></path>
    <path id="SvgjsPath1105" d="M256.40493758780036 322.5614245194068L186.38172538632162 477.47026788538983 "
          stroke="#0f72c2" stroke-width="1" opacity="0.2"></path>
    <path id="SvgjsPath1106" d="M249.00126069312023 318.4254824621921L153.80554704972903 459.2721228336453 "
          stroke="#0f72c2" stroke-width="1" opacity="0.2"></path>
    <path id="SvgjsPath1107" d="M242.4030565511227 313.09780469772625L124.77344882493986 435.8303406699954 "
          stroke="#0f72c2" stroke-width="1" opacity="0.2"></path>
    <path id="SvgjsPath1108" d="M236.80014348165298 306.73165881521436L100.12063131927312 407.81929878694314 "
          stroke="#0f72c2" stroke-width="1" opacity="0.2"></path>
    <path id="SvgjsPath1109" d="M232.35370709252157 299.5101872408837L80.55631120709492 376.0448238598881 "
          stroke="#0f72c2" stroke-width="1" opacity="0.2"></path>
    <path id="SvgjsPath1110" d="M229.19166326303747 291.64113856382755L66.64331835736482 341.42100968084117 "
          stroke="#0f72c2" stroke-width="1" opacity="0.2"></path>
    <path id="SvgjsPath1111" d="M227.40497823705616 283.3508909873439L58.78190424304708 304.9439203443133 "
          stroke="#0f72c2" stroke-width="1" opacity="0.2"></path>
    <path id="SvgjsPath1112" d="M227.04505168976593 274.87793984019254L57.19822743497008 267.6629352968473 "
          stroke="#0f72c2" stroke-width="1" opacity="0.2"></path>
    <path id="SvgjsPath1113" d="M228.1222380526157 266.46603650021365L61.937847431509056 230.65056060094014 "
          stroke="#0f72c2" stroke-width="1" opacity="0.2"></path>
    <path id="SvgjsPath1114" d="M230.60554863517453 258.3571761109846L72.86441399476794 194.97157488833216 "
          stroke="#0f72c2" stroke-width="1" opacity="0.2"></path>
    <path id="SvgjsPath1115" d="M234.42354311333443 250.78463582213843L89.6635896986715 161.65239761740906 "
          stroke="#0f72c2" stroke-width="1" opacity="0.2"></path>
    <path id="SvgjsPath1116" d="M239.4663847373638 243.9662638304959L111.85209284440066 131.65156085418204 "
          stroke="#0f72c2" stroke-width="1" opacity="0.2"></path>
    <path id="SvgjsPath1117" d="M245.58900013521787 238.09821228407802L138.7916005949587 105.8321340499433 "
          stroke="#0f72c2" stroke-width="1" opacity="0.2"></path>
    <path id="SvgjsPath1118" d="M252.6152528093183 233.34929434194058L169.7071123610005 84.93689510453856 "
          stroke="#0f72c2" stroke-width="1" opacity="0.2"></path>
    <path id="SvgjsPath1119" d="M260.3430102628971 229.85612772694577L203.70924515674733 69.56696199856148 "
          stroke="#0f72c2" stroke-width="1" opacity="0.2"></path>
    <path id="SvgjsPath1120" d="M268.5499589839075 227.7192044826146L239.81981952919307 60.16449972350415 "
          stroke="#0f72c2" stroke-width="1" opacity="0.2"></path>
</svg>